<?xml version="1.0" standalone="no"?>
<!DOCTYPE svg PUBLIC "-//W3C//DTD SVG 1.1//EN" "http://www.w3.org/Graphics/SVG/1.1/DTD/svg11.dtd" >
<svg xmlns="http://www.w3.org/2000/svg" xmlns:xlink="http://www.w3.org/1999/xlink" version="1.1">
<metadata>
Created by FontForge 20160405 at Mon Sep  4 08:33:34 2017
 By www-data
Copyright (c) 2013, Natanael Gama (www.ndiscovered.com . info(at)ndiscovered.com), with Reserved Font Name Exo. This Font Software is licensed under the SIL Open Font License, Version 1.1.
</metadata>
<defs>
<font id="Exo2.0-Black" horiz-adv-x="590" >
  <font-face 
    font-family="Exo 2.0 Black"
    font-weight="900"
    font-stretch="normal"
    units-per-em="1000"
    panose-1="0 0 10 0 0 0 0 0 0 0"
    ascent="800"
    descent="-200"
    x-height="500"
    cap-height="690"
    bbox="-174 -309 1346 968"
    underline-thickness="50"
    underline-position="-100"
    stemh="214"
    stemv="144"
    unicode-range="U+0020-FB02"
  />
<missing-glyph horiz-adv-x="600" 
 />
    <glyph glyph-name="f_f" unicode="ff" horiz-adv-x="802" 
d="M814 584h-93c-37 0 -48 -13 -48 -52v-32h124v-126h-124v-374h-203v374h-175v-374h-203v374h-84v121l84 5v51c3 94 47 163 181 163c36 0 119 -4 163 -14l-20 -126h-73c-37 0 -48 -13 -48 -52v-22h175v61c0 94 47 163 181 163c40 0 133 -4 183 -14z" />
    <glyph glyph-name="f_f_i" unicode="ffi" horiz-adv-x="1100" 
d="M905 739h87c42 0 62 -20 62 -62v-51c0 -42 -20 -62 -62 -62h-87c-42 0 -62 20 -62 62v51c0 42 20 62 62 62zM1053 500v-500h-211v374h-169v-374h-202v374h-176v-374h-203v374h-84v121l84 5v51c3 94 47 163 181 163c36 0 119 -4 163 -14l-20 -126h-73
c-37 0 -48 -13 -48 -52v-22h176v61c0 94 47 163 183 163c38 0 98 -4 144 -14v-126h-69c-45 0 -56 -13 -56 -52v-32h380z" />
    <glyph glyph-name="f_f_l" unicode="ffl" horiz-adv-x="1151" 
d="M1130 146l23 -134c-29 -18 -104 -26 -142 -26c-99 0 -159 52 -159 140v461h-133c-28 0 -46 -12 -46 -55v-32h112v-126h-112v-374h-203v374h-175v-374h-203v374h-84v121l84 5v51c3 94 47 163 181 163c36 0 119 -4 163 -14l-20 -126h-73c-37 0 -48 -13 -48 -52v-22h175v61
c0 94 46 163 181 163c43 0 275 2 411 -24v-518c0 -26 13 -36 41 -36h27z" />
    <glyph glyph-name="fi" unicode="fi" horiz-adv-x="727" 
d="M532 739h87c42 0 62 -20 62 -62v-51c0 -42 -20 -62 -62 -62h-87c-42 0 -62 20 -62 62v51c0 42 20 62 62 62zM680 500v-500h-211v374h-167v-374h-211v374h-83v121l83 5v61c0 94 47 163 183 163c38 0 105 -4 151 -14v-126h-76c-36 0 -47 -13 -47 -52v-32h378z" />
    <glyph glyph-name="fl" unicode="fl" horiz-adv-x="773" 
d="M750 146l23 -134c-29 -18 -104 -26 -142 -26c-99 0 -159 52 -159 140v461h-126c-35 0 -46 -13 -46 -55v-32h105v-126h-105v-374h-210v374h-82v121l82 5v61c0 94 46 163 181 163c43 0 275 2 411 -24v-518c0 -26 13 -36 41 -36h27z" />
    <glyph glyph-name=".notdef" horiz-adv-x="600" 
 />
    <glyph glyph-name="A" unicode="A" horiz-adv-x="683" 
d="M436 149h-189l-35 -149h-221l179 634c9 34 38 56 73 56h197c35 0 64 -22 73 -56l179 -634h-221zM401 301l-34 148c-5 25 -10 54 -12 79h-27c-3 -25 -7 -54 -12 -79l-34 -148h119z" />
    <glyph glyph-name="Aacute" unicode="&#xc1;" horiz-adv-x="683" 
d="M298 720l-57 86l233 150l79 -133zM436 149h-189l-35 -149h-221l179 634c9 34 38 56 73 56h197c35 0 64 -22 73 -56l179 -634h-221zM401 301l-34 148c-5 25 -10 54 -12 79h-27c-3 -25 -7 -54 -12 -79l-34 -148h119z" />
    <glyph glyph-name="Abreve" unicode="&#x102;" horiz-adv-x="683" 
d="M424 922l97 -13c16 -89 -55 -172 -178 -172s-195 83 -179 172l97 13c0 -42 22 -59 82 -59c59 0 81 17 81 59zM436 149h-189l-35 -149h-221l179 634c9 34 38 56 73 56h197c35 0 64 -22 73 -56l179 -634h-221zM401 301l-34 148c-5 25 -10 54 -12 79h-27
c-3 -25 -7 -54 -12 -79l-34 -148h119z" />
    <glyph glyph-name="Acircumflex" unicode="&#xc2;" horiz-adv-x="683" 
d="M178 710l-50 77l140 133h152l135 -141l-48 -69l-159 93h-8zM436 149h-189l-35 -149h-221l179 634c9 34 38 56 73 56h197c35 0 64 -22 73 -56l179 -634h-221zM401 301l-34 148c-5 25 -10 54 -12 79h-27c-3 -25 -7 -54 -12 -79l-34 -148h119z" />
    <glyph glyph-name="Adieresis" unicode="&#xc4;" horiz-adv-x="683" 
d="M281 763h-69c-26 0 -39 13 -39 39v63c0 26 13 39 39 39h69c26 0 39 -13 39 -39v-63c0 -26 -13 -39 -39 -39zM470 763h-69c-26 0 -39 13 -39 39v63c0 26 13 39 39 39h69c26 0 39 -13 39 -39v-63c0 -26 -13 -39 -39 -39zM436 149h-189l-35 -149h-221l179 634
c9 34 38 56 73 56h197c35 0 64 -22 73 -56l179 -634h-221zM401 301l-34 148c-5 25 -10 54 -12 79h-27c-3 -25 -7 -54 -12 -79l-34 -148h119z" />
    <glyph glyph-name="Agrave" unicode="&#xc0;" horiz-adv-x="683" 
d="M386 720l-255 103l79 133l233 -150zM436 149h-189l-35 -149h-221l179 634c9 34 38 56 73 56h197c35 0 64 -22 73 -56l179 -634h-221zM401 301l-34 148c-5 25 -10 54 -12 79h-27c-3 -25 -7 -54 -12 -79l-34 -148h119z" />
    <glyph glyph-name="Amacron" unicode="&#x100;" horiz-adv-x="683" 
d="M504 772h-320v123h320v-123zM436 149h-189l-35 -149h-221l179 634c9 34 38 56 73 56h197c35 0 64 -22 73 -56l179 -634h-221zM401 301l-34 148c-5 25 -10 54 -12 79h-27c-3 -25 -7 -54 -12 -79l-34 -148h119z" />
    <glyph glyph-name="Aogonek" unicode="&#x104;" horiz-adv-x="683" 
d="M693 -120l12 -72c-162 -61 -222 14 -198 87c10 31 42 70 102 105h-138l-35 149h-189l-35 -149h-221l179 634c9 34 38 56 73 56h197c35 0 64 -22 73 -56l179 -634c-16 -29 -31 -54 -47 -87c-17 -36 11 -39 48 -33zM401 301l-34 148c-5 25 -10 54 -12 79h-27
c-3 -25 -7 -54 -12 -79l-34 -148h119z" />
    <glyph glyph-name="Aring" unicode="&#xc5;" horiz-adv-x="683" 
d="M343 713c-70 0 -129 55 -129 125c0 69 59 125 129 125s129 -56 129 -125c0 -70 -59 -125 -129 -125zM343 883c-24 0 -44 -21 -44 -45c0 -25 20 -45 44 -45s44 20 44 45c0 24 -20 45 -44 45zM436 149h-189l-35 -149h-221l179 634c9 34 38 56 73 56h197c35 0 64 -22 73 -56
l179 -634h-221zM401 301l-34 148c-5 25 -10 54 -12 79h-27c-3 -25 -7 -54 -12 -79l-34 -148h119z" />
    <glyph glyph-name="Atilde" unicode="&#xc3;" horiz-adv-x="683" 
d="M239 751h-87c-22 119 32 173 85 169c68 -5 117 -32 169 -43c30 -6 29 6 29 38h87c21 -112 -23 -173 -85 -169c-68 5 -125 35 -170 43c-30 5 -28 -6 -28 -38zM436 149h-189l-35 -149h-221l179 634c9 34 38 56 73 56h197c35 0 64 -22 73 -56l179 -634h-221zM401 301
l-34 148c-5 25 -10 54 -12 79h-27c-3 -25 -7 -54 -12 -79l-34 -148h119z" />
    <glyph glyph-name="AE" unicode="&#xc6;" horiz-adv-x="954" 
d="M916 159l10 -150c-104 -13 -227 -13 -341 -13c-91 0 -146 64 -146 157v8h-170l-67 -161h-221l241 534c50 112 116 158 354 158c128 0 229 0 350 -11l-10 -150h-236c-23 0 -39 -15 -39 -36v-75h241v-134h-241v-91c0 -21 15 -36 39 -36h236zM439 309v189c0 21 6 44 15 62
h-14c-9 -13 -17 -32 -23 -44l-86 -207h108z" />
    <glyph glyph-name="B" unicode="B" horiz-adv-x="660" 
d="M484 361v-6c110 -9 149 -73 149 -183c0 -142 -77 -180 -250 -180c-149 0 -233 1 -331 8v690c89 7 166 8 298 8c192 0 260 -38 260 -180c0 -99 -35 -149 -126 -157zM264 421h77c50 0 62 12 62 66c0 53 -12 64 -64 64h-75v-130zM264 139h80c60 0 73 14 73 77
c0 64 -13 78 -74 78h-79v-155z" />
    <glyph glyph-name="C" unicode="C" horiz-adv-x="605" 
d="M571 179l16 -158c-70 -24 -134 -33 -242 -33c-229 0 -313 94 -313 357s84 357 313 357c108 0 158 -8 227 -27l-16 -158c-70 1 -116 2 -211 2c-68 0 -85 -34 -85 -174s17 -174 85 -174c100 0 159 1 226 8z" />
    <glyph glyph-name="Cacute" unicode="&#x106;" horiz-adv-x="605" 
d="M554 823l-255 -103l-57 86l233 150zM571 179l16 -158c-70 -24 -134 -33 -242 -33c-229 0 -313 94 -313 357s84 357 313 357c108 0 158 -8 227 -27l-16 -158c-70 1 -116 2 -211 2c-68 0 -85 -34 -85 -174s17 -174 85 -174c100 0 159 1 226 8z" />
    <glyph glyph-name="Ccaron" unicode="&#x10c;" horiz-adv-x="605" 
d="M548 867l-163 -131h-82l-164 131l50 77l151 -76h8l152 76zM571 179l16 -158c-70 -24 -134 -33 -242 -33c-229 0 -313 94 -313 357s84 357 313 357c108 0 158 -8 227 -27l-16 -158c-70 1 -116 2 -211 2c-68 0 -85 -34 -85 -174s17 -174 85 -174c100 0 159 1 226 8z" />
    <glyph glyph-name="Ccedilla" unicode="&#xc7;" horiz-adv-x="605" 
d="M571 179l16 -158c-70 -24 -134 -33 -242 -33c-229 0 -313 94 -313 357s84 357 313 357c108 0 158 -8 227 -27l-16 -158c-70 1 -116 2 -211 2c-68 0 -85 -34 -85 -174s17 -174 85 -174c100 0 159 1 226 8zM236 -137l19 72c125 14 180 15 176 -65
c-5 -115 -109 -164 -234 -147l22 78c44 0 83 4 87 51c2 14 -7 11 -70 11z" />
    <glyph glyph-name="Cdotaccent" unicode="&#x10a;" horiz-adv-x="605" 
d="M313 913h63c40 0 59 -18 59 -57v-47c0 -38 -19 -57 -59 -57h-63c-40 0 -59 19 -59 57v47c0 39 19 57 59 57zM571 179l16 -158c-70 -24 -134 -33 -242 -33c-229 0 -313 94 -313 357s84 357 313 357c108 0 158 -8 227 -27l-16 -158c-70 1 -116 2 -211 2
c-68 0 -85 -34 -85 -174s17 -174 85 -174c100 0 159 1 226 8z" />
    <glyph glyph-name="D" unicode="D" horiz-adv-x="701" 
d="M52 0v690c88 5 177 10 295 10c237 0 322 -75 322 -355s-85 -355 -322 -355c-115 0 -208 4 -295 10zM269 148l78 -1c74 0 93 38 93 198s-19 198 -93 198h-78v-395z" />
    <glyph glyph-name="Eth" unicode="&#xd0;" horiz-adv-x="701" 
d="M52 409v281c88 5 177 10 295 10c237 0 322 -75 322 -355s-85 -355 -322 -355c-115 0 -208 4 -295 10v305h-45v104h45zM269 148l78 -1c74 0 93 38 93 198s-19 198 -93 198h-78v-134h99v-104h-99v-157z" />
    <glyph glyph-name="Dcaron" unicode="&#x10e;" horiz-adv-x="701" 
d="M307 736l-164 131l50 77l151 -76h8l152 76l48 -77l-163 -131h-82zM52 0v690c88 5 177 10 295 10c237 0 322 -75 322 -355s-85 -355 -322 -355c-115 0 -208 4 -295 10zM269 148l78 -1c74 0 93 38 93 198s-19 198 -93 198h-78v-395z" />
    <glyph glyph-name="Dcroat" unicode="&#x110;" horiz-adv-x="701" 
d="M52 409v281c88 5 177 10 295 10c237 0 322 -75 322 -355s-85 -355 -322 -355c-115 0 -208 4 -295 10v305h-45v104h45zM269 148l78 -1c74 0 93 38 93 198s-19 198 -93 198h-78v-134h99v-104h-99v-157z" />
    <glyph glyph-name="E" unicode="E" horiz-adv-x="596" 
d="M558 162l10 -153c-100 -13 -240 -13 -359 -13c-95 0 -162 64 -162 157v384c0 93 67 157 162 157c119 0 259 0 359 -13l-10 -153h-253c-25 0 -41 -15 -41 -36v-67h258v-144h-258v-83c0 -21 16 -36 41 -36h253z" />
    <glyph glyph-name="Eacute" unicode="&#xc9;" horiz-adv-x="596" 
d="M278 720l-57 86l233 150l79 -133zM558 162l10 -153c-100 -13 -240 -13 -359 -13c-95 0 -162 64 -162 157v384c0 93 67 157 162 157c119 0 259 0 359 -13l-10 -153h-253c-25 0 -41 -15 -41 -36v-67h258v-144h-258v-83c0 -21 16 -36 41 -36h253z" />
    <glyph glyph-name="Ecaron" unicode="&#x11a;" horiz-adv-x="596" 
d="M282 736l-164 131l50 77l151 -76h8l152 76l48 -77l-163 -131h-82zM558 162l10 -153c-100 -13 -240 -13 -359 -13c-95 0 -162 64 -162 157v384c0 93 67 157 162 157c119 0 259 0 359 -13l-10 -153h-253c-25 0 -41 -15 -41 -36v-67h258v-144h-258v-83c0 -21 16 -36 41 -36
h253z" />
    <glyph glyph-name="Ecircumflex" unicode="&#xca;" horiz-adv-x="596" 
d="M158 710l-50 77l140 133h152l135 -141l-48 -69l-159 93h-8zM558 162l10 -153c-100 -13 -240 -13 -359 -13c-95 0 -162 64 -162 157v384c0 93 67 157 162 157c119 0 259 0 359 -13l-10 -153h-253c-25 0 -41 -15 -41 -36v-67h258v-144h-258v-83c0 -21 16 -36 41 -36h253z
" />
    <glyph glyph-name="Edieresis" unicode="&#xcb;" horiz-adv-x="596" 
d="M261 763h-69c-26 0 -39 13 -39 39v63c0 26 13 39 39 39h69c26 0 39 -13 39 -39v-63c0 -26 -13 -39 -39 -39zM450 763h-69c-26 0 -39 13 -39 39v63c0 26 13 39 39 39h69c26 0 39 -13 39 -39v-63c0 -26 -13 -39 -39 -39zM558 162l10 -153c-100 -13 -240 -13 -359 -13
c-95 0 -162 64 -162 157v384c0 93 67 157 162 157c119 0 259 0 359 -13l-10 -153h-253c-25 0 -41 -15 -41 -36v-67h258v-144h-258v-83c0 -21 16 -36 41 -36h253z" />
    <glyph glyph-name="Edotaccent" unicode="&#x116;" horiz-adv-x="596" 
d="M355 752h-63c-40 0 -59 19 -59 57v47c0 39 19 57 59 57h63c40 0 59 -18 59 -57v-47c0 -38 -19 -57 -59 -57zM558 162l10 -153c-100 -13 -240 -13 -359 -13c-95 0 -162 64 -162 157v384c0 93 67 157 162 157c119 0 259 0 359 -13l-10 -153h-253c-25 0 -41 -15 -41 -36v-67
h258v-144h-258v-83c0 -21 16 -36 41 -36h253z" />
    <glyph glyph-name="Egrave" unicode="&#xc8;" horiz-adv-x="596" 
d="M366 720l-255 103l79 133l233 -150zM558 162l10 -153c-100 -13 -240 -13 -359 -13c-95 0 -162 64 -162 157v384c0 93 67 157 162 157c119 0 259 0 359 -13l-10 -153h-253c-25 0 -41 -15 -41 -36v-67h258v-144h-258v-83c0 -21 16 -36 41 -36h253z" />
    <glyph glyph-name="Emacron" unicode="&#x112;" horiz-adv-x="596" 
d="M484 772h-320v123h320v-123zM558 162l10 -153c-100 -13 -240 -13 -359 -13c-95 0 -162 64 -162 157v384c0 93 67 157 162 157c119 0 259 0 359 -13l-10 -153h-253c-25 0 -41 -15 -41 -36v-67h258v-144h-258v-83c0 -21 16 -36 41 -36h253z" />
    <glyph glyph-name="Eogonek" unicode="&#x118;" horiz-adv-x="596" 
d="M569 -111l12 -72c-162 -61 -222 14 -198 87c9 29 37 64 88 97c-84 -5 -178 -5 -262 -5c-95 0 -162 64 -162 157v384c0 93 67 157 162 157c119 0 259 0 359 -13l-10 -153h-253c-25 0 -41 -15 -41 -36v-67h258v-144h-258v-83c0 -21 16 -36 41 -36h253l10 -153
c-16 -29 -31 -54 -47 -87c-17 -36 11 -39 48 -33z" />
    <glyph glyph-name="F" unicode="F" horiz-adv-x="574" 
d="M551 528h-241c-27 0 -43 -15 -43 -36v-81h247v-144h-247v-267h-217v537c0 93 68 157 164 157c115 0 252 0 347 -14z" />
    <glyph glyph-name="G" unicode="G" horiz-adv-x="668" 
d="M631 397v-397h-160l-19 71c-32 -39 -98 -85 -191 -85c-159 0 -229 98 -229 359c0 265 87 359 325 359c110 0 172 -8 245 -29l-16 -156c-76 1 -135 2 -228 2c-77 0 -98 -34 -98 -176c0 -140 20 -174 88 -174c29 0 55 3 75 6v220h208z" />
    <glyph glyph-name="Gbreve" unicode="&#x11e;" horiz-adv-x="668" 
d="M433 922l97 -13c16 -89 -55 -172 -178 -172s-195 83 -179 172l97 13c0 -42 22 -59 82 -59c59 0 81 17 81 59zM631 397v-397h-160l-19 71c-32 -39 -98 -85 -191 -85c-159 0 -229 98 -229 359c0 265 87 359 325 359c110 0 172 -8 245 -29l-16 -156c-76 1 -135 2 -228 2
c-77 0 -98 -34 -98 -176c0 -140 20 -174 88 -174c29 0 55 3 75 6v220h208z" />
    <glyph glyph-name="Gcommaaccent" unicode="&#x122;" horiz-adv-x="668" 
d="M631 397v-397h-160l-19 71c-32 -39 -98 -85 -191 -85c-159 0 -229 98 -229 359c0 265 87 359 325 359c110 0 172 -8 245 -29l-16 -156c-76 1 -135 2 -228 2c-77 0 -98 -34 -98 -176c0 -140 20 -174 88 -174c29 0 55 3 75 6v220h208zM331 -48h38c48 0 64 -13 65 -54v-48
c0 -76 -23 -115 -61 -159l-71 19c14 34 17 69 18 103c-38 0 -55 17 -56 48l3 37c1 41 16 54 64 54z" />
    <glyph glyph-name="Gdotaccent" unicode="&#x120;" horiz-adv-x="668" 
d="M384 752h-63c-40 0 -59 19 -59 57v47c0 39 19 57 59 57h63c40 0 59 -18 59 -57v-47c0 -38 -19 -57 -59 -57zM631 397v-397h-160l-19 71c-32 -39 -98 -85 -191 -85c-159 0 -229 98 -229 359c0 265 87 359 325 359c110 0 172 -8 245 -29l-16 -156c-76 1 -135 2 -228 2
c-77 0 -98 -34 -98 -176c0 -140 20 -174 88 -174c29 0 55 3 75 6v220h208z" />
    <glyph glyph-name="H" unicode="H" horiz-adv-x="714" 
d="M661 690v-690h-217v290h-174v-290h-217v690h217v-248h174v248h217z" />
    <glyph glyph-name="Hbar" unicode="&#x126;" horiz-adv-x="714" 
d="M712 507h-51v-507h-217v290h-174v-290h-217v507h-49v94h49v89h217v-89h174v89h217v-89h51v-94zM444 507h-174v-65h174v65z" />
    <glyph glyph-name="I" unicode="I" horiz-adv-x="321" 
d="M268 0h-215v690h215v-690z" />
    <glyph glyph-name="IJ" unicode="&#x132;" horiz-adv-x="725" 
d="M268 0h-215v690h215v-690zM675 690v-563c0 -90 -70 -141 -183 -141c-44 0 -127 8 -161 26l23 136h47c40 0 59 10 59 35v507h215z" />
    <glyph glyph-name="Iacute" unicode="&#xcd;" horiz-adv-x="321" 
d="M371 823l-255 -103l-57 86l233 150zM268 0h-215v690h215v-690z" />
    <glyph glyph-name="Icircumflex" unicode="&#xce;" horiz-adv-x="321" 
d="M373 779l-48 -69l-159 93h-8l-162 -93l-50 77l140 133h152zM268 0h-215v690h215v-690z" />
    <glyph glyph-name="Idieresis" unicode="&#xcf;" horiz-adv-x="321" 
d="M30 904h69c26 0 39 -13 39 -39v-63c0 -26 -13 -39 -39 -39h-69c-26 0 -39 13 -39 39v63c0 26 13 39 39 39zM219 904h69c26 0 39 -13 39 -39v-63c0 -26 -13 -39 -39 -39h-69c-26 0 -39 13 -39 39v63c0 26 13 39 39 39zM268 0h-215v690h215v-690z" />
    <glyph glyph-name="Idotaccent" unicode="&#x130;" horiz-adv-x="321" 
d="M130 913h63c40 0 59 -18 59 -57v-47c0 -38 -19 -57 -59 -57h-63c-40 0 -59 19 -59 57v47c0 39 19 57 59 57zM268 0h-215v690h215v-690z" />
    <glyph glyph-name="Igrave" unicode="&#xcc;" horiz-adv-x="321" 
d="M261 806l-57 -86l-255 103l79 133zM268 0h-215v690h215v-690z" />
    <glyph glyph-name="Imacron" unicode="&#x12a;" horiz-adv-x="321" 
d="M322 772h-320v123h320v-123zM268 0h-215v690h215v-690z" />
    <glyph glyph-name="Iogonek" unicode="&#x12e;" horiz-adv-x="321" 
d="M268 0h-28c-16 -29 -31 -54 -47 -87c-17 -36 11 -39 48 -33l12 -72c-162 -61 -222 14 -198 87c10 31 42 70 102 105h-104v690h215v-690z" />
    <glyph glyph-name="J" unicode="J" horiz-adv-x="404" 
d="M354 690v-563c0 -90 -70 -141 -183 -141c-44 0 -127 8 -161 26l23 136h47c40 0 59 10 59 35v507h215z" />
    <glyph glyph-name="K" unicode="K" horiz-adv-x="676" 
d="M298 288h-36c5 -22 8 -44 8 -63v-225h-217v690h217v-174c0 -28 -3 -59 -10 -88h38l144 262h233l-159 -270c-17 -31 -42 -53 -61 -61v-4c19 -8 53 -38 69 -68l161 -287h-241z" />
    <glyph glyph-name="Kcommaaccent" unicode="&#x136;" horiz-adv-x="676" 
d="M685 0h-241l-146 288h-36c5 -22 8 -44 8 -63v-225h-217v690h217v-174c0 -28 -3 -59 -10 -88h38l144 262h233l-159 -270c-17 -31 -42 -53 -61 -61v-4c19 -8 53 -38 69 -68zM329 -48h38c48 0 64 -13 65 -54v-48c0 -76 -23 -115 -61 -159l-71 19c14 34 17 69 18 103
c-38 0 -55 17 -56 48l3 37c1 41 16 54 64 54z" />
    <glyph glyph-name="L" unicode="L" horiz-adv-x="557" 
d="M267 690v-482c0 -21 16 -36 42 -36h232l10 -162c-103 -14 -224 -14 -337 -14c-100 0 -164 64 -164 157v537h217z" />
    <glyph glyph-name="Lacute" unicode="&#x139;" horiz-adv-x="557" 
d="M374 823l-255 -103l-57 86l233 150zM267 690v-482c0 -21 16 -36 42 -36h232l10 -162c-103 -14 -224 -14 -337 -14c-100 0 -164 64 -164 157v537h217z" />
    <glyph glyph-name="Lcaron" unicode="&#x13d;" horiz-adv-x="557" 
d="M267 690v-482c0 -21 16 -36 42 -36h232l10 -162c-103 -14 -224 -14 -337 -14c-100 0 -164 64 -164 157v537h217zM390 689h38c48 0 64 -13 65 -54v-48c0 -76 -23 -115 -61 -159l-71 19c14 34 17 69 18 103c-38 0 -55 17 -56 48l3 37c1 41 16 54 64 54z" />
    <glyph glyph-name="Lcommaaccent" unicode="&#x13b;" horiz-adv-x="557" 
d="M267 690v-482c0 -21 16 -36 42 -36h232l10 -162c-103 -14 -224 -14 -337 -14c-100 0 -164 64 -164 157v537h217zM275 -48h38c48 0 64 -13 65 -54v-48c0 -76 -23 -115 -61 -159l-71 19c14 34 17 69 18 103c-38 0 -55 17 -56 48l3 37c1 41 16 54 64 54z" />
    <glyph glyph-name="Ldot" unicode="&#x13f;" horiz-adv-x="557" 
d="M267 690v-482c0 -21 16 -36 42 -36h232l10 -162c-103 -14 -224 -14 -337 -14c-100 0 -164 64 -164 157v537h217zM467 343h-63c-40 0 -59 18 -59 57v47c0 38 19 57 59 57h63c40 0 59 -19 59 -57v-47c0 -39 -19 -57 -59 -57z" />
    <glyph glyph-name="Lslash" unicode="&#x141;" horiz-adv-x="557" 
d="M541 172l10 -162c-103 -14 -224 -14 -337 -14c-100 0 -164 64 -164 157v133l-43 -17v104l43 17v300h217v-217l104 40v-104l-104 -40v-161c0 -21 16 -36 42 -36h232z" />
    <glyph glyph-name="M" unicode="M" horiz-adv-x="952" 
d="M621 690h191c50 0 74 -26 76 -75l24 -615h-195l-21 528h-15l-68 -352c-7 -44 -36 -66 -82 -66h-112c-46 0 -75 22 -83 66l-69 352h-15l-17 -528h-195l24 615c2 49 26 75 76 75h187c45 0 74 -22 82 -67l50 -274c5 -34 8 -69 11 -103h9c4 34 7 69 12 103l47 274
c8 45 37 67 83 67z" />
    <glyph glyph-name="N" unicode="N" horiz-adv-x="738" 
d="M687 690v-615c0 -49 -26 -75 -75 -75h-83c-45 0 -61 22 -84 63l-150 237c-19 34 -34 76 -46 118h-7c6 -42 10 -86 10 -126v-292h-200v615c0 49 26 75 75 75h83c45 0 60 -22 84 -63l144 -226c19 -33 37 -74 53 -118h7c-5 42 -9 83 -10 125v282h199z" />
    <glyph glyph-name="Nacute" unicode="&#x143;" horiz-adv-x="738" 
d="M587 823l-255 -103l-57 86l233 150zM687 690v-615c0 -49 -26 -75 -75 -75h-83c-45 0 -61 22 -84 63l-150 237c-19 34 -34 76 -46 118h-7c6 -42 10 -86 10 -126v-292h-200v615c0 49 26 75 75 75h83c45 0 60 -22 84 -63l144 -226c19 -33 37 -74 53 -118h7
c-5 42 -9 83 -10 125v282h199z" />
    <glyph glyph-name="Ncaron" unicode="&#x147;" horiz-adv-x="738" 
d="M581 867l-163 -131h-82l-164 131l50 77l151 -76h8l152 76zM687 690v-615c0 -49 -26 -75 -75 -75h-83c-45 0 -61 22 -84 63l-150 237c-19 34 -34 76 -46 118h-7c6 -42 10 -86 10 -126v-292h-200v615c0 49 26 75 75 75h83c45 0 60 -22 84 -63l144 -226
c19 -33 37 -74 53 -118h7c-5 42 -9 83 -10 125v282h199z" />
    <glyph glyph-name="Ncommaaccent" unicode="&#x145;" horiz-adv-x="738" 
d="M687 690v-615c0 -49 -26 -75 -75 -75h-83c-45 0 -61 22 -84 63l-150 237c-19 34 -34 76 -46 118h-7c6 -42 10 -86 10 -126v-292h-200v615c0 49 26 75 75 75h83c45 0 60 -22 84 -63l144 -226c19 -33 37 -74 53 -118h7c-5 42 -9 83 -10 125v282h199zM360 -48h38
c48 0 64 -13 65 -54v-48c0 -76 -23 -115 -61 -159l-71 19c14 34 17 69 18 103c-38 0 -55 17 -56 48l3 37c1 41 16 54 64 54z" />
    <glyph glyph-name="Eng" unicode="&#x14a;" horiz-adv-x="740" 
d="M687 690v-723c0 -108 -58 -171 -145 -171c-39 0 -104 8 -144 26l23 136h36c27 0 43 8 43 27v24h-5c-10 0 -29 27 -45 54l-155 237c-20 34 -34 78 -47 118h-6c5 -39 9 -77 9 -116v-302h-199v615c0 49 26 75 75 75h82c45 0 62 -22 85 -63l144 -226c16 -27 36 -70 52 -118h7
c-6 41 -10 82 -10 123v284h200z" />
    <glyph glyph-name="Ntilde" unicode="&#xd1;" horiz-adv-x="738" 
d="M273 751h-87c-22 119 32 173 85 169c68 -5 117 -32 169 -43c30 -6 29 6 29 38h87c21 -112 -23 -173 -85 -169c-68 5 -125 35 -170 43c-30 5 -28 -6 -28 -38zM687 690v-615c0 -49 -26 -75 -75 -75h-83c-45 0 -61 22 -84 63l-150 237c-19 34 -34 76 -46 118h-7
c6 -42 10 -86 10 -126v-292h-200v615c0 49 26 75 75 75h83c45 0 60 -22 84 -63l144 -226c19 -33 37 -74 53 -118h7c-5 42 -9 83 -10 125v282h199z" />
    <glyph glyph-name="O" unicode="O" horiz-adv-x="707" 
d="M353 704c237 0 322 -75 322 -359s-85 -359 -322 -359c-236 0 -321 75 -321 359s85 359 321 359zM353 543c-74 0 -93 -38 -93 -198s19 -198 93 -198s93 38 93 198s-19 198 -93 198z" />
    <glyph glyph-name="Oacute" unicode="&#xd3;" horiz-adv-x="707" 
d="M563 823l-255 -103l-57 86l233 150zM353 704c237 0 322 -75 322 -359s-85 -359 -322 -359c-236 0 -321 75 -321 359s85 359 321 359zM353 543c-74 0 -93 -38 -93 -198s19 -198 93 -198s93 38 93 198s-19 198 -93 198z" />
    <glyph glyph-name="Ocircumflex" unicode="&#xd4;" horiz-adv-x="707" 
d="M565 779l-48 -69l-159 93h-8l-162 -93l-50 77l140 133h152zM353 704c237 0 322 -75 322 -359s-85 -359 -322 -359c-236 0 -321 75 -321 359s85 359 321 359zM353 543c-74 0 -93 -38 -93 -198s19 -198 93 -198s93 38 93 198s-19 198 -93 198z" />
    <glyph glyph-name="Odieresis" unicode="&#xd6;" horiz-adv-x="707" 
d="M222 904h69c26 0 39 -13 39 -39v-63c0 -26 -13 -39 -39 -39h-69c-26 0 -39 13 -39 39v63c0 26 13 39 39 39zM411 904h69c26 0 39 -13 39 -39v-63c0 -26 -13 -39 -39 -39h-69c-26 0 -39 13 -39 39v63c0 26 13 39 39 39zM353 704c237 0 322 -75 322 -359
s-85 -359 -322 -359c-236 0 -321 75 -321 359s85 359 321 359zM353 543c-74 0 -93 -38 -93 -198s19 -198 93 -198s93 38 93 198s-19 198 -93 198z" />
    <glyph glyph-name="Ograve" unicode="&#xd2;" horiz-adv-x="707" 
d="M453 806l-57 -86l-255 103l79 133zM353 704c237 0 322 -75 322 -359s-85 -359 -322 -359c-236 0 -321 75 -321 359s85 359 321 359zM353 543c-74 0 -93 -38 -93 -198s19 -198 93 -198s93 38 93 198s-19 198 -93 198z" />
    <glyph glyph-name="Ohungarumlaut" unicode="&#x150;" horiz-adv-x="707" 
d="M402 884l-169 -176l-83 67l123 193zM617 884l-170 -176l-82 66l123 194zM353 704c237 0 322 -75 322 -359s-85 -359 -322 -359c-236 0 -321 75 -321 359s85 359 321 359zM353 543c-74 0 -93 -38 -93 -198s19 -198 93 -198s93 38 93 198s-19 198 -93 198z" />
    <glyph glyph-name="Omacron" unicode="&#x14c;" horiz-adv-x="707" 
d="M514 772h-320v123h320v-123zM353 704c237 0 322 -75 322 -359s-85 -359 -322 -359c-236 0 -321 75 -321 359s85 359 321 359zM353 543c-74 0 -93 -38 -93 -198s19 -198 93 -198s93 38 93 198s-19 198 -93 198z" />
    <glyph glyph-name="Oslash" unicode="&#xd8;" horiz-adv-x="707" 
d="M632 730l-40 -88c59 -53 83 -145 83 -297c0 -284 -85 -359 -322 -359c-25 0 -48 1 -70 3l-50 -107l-161 77l43 90c-59 52 -83 144 -83 296c0 284 85 359 321 359c25 0 48 -1 70 -3l48 105zM353 147c74 0 93 38 93 198s-19 198 -93 198s-93 -38 -93 -198s19 -198 93 -198z
" />
    <glyph glyph-name="Otilde" unicode="&#xd5;" horiz-adv-x="707" 
d="M249 751h-87c-22 119 32 173 85 169c68 -5 117 -32 169 -43c30 -6 29 6 29 38h87c21 -112 -23 -173 -85 -169c-68 5 -125 35 -170 43c-30 5 -28 -6 -28 -38zM353 704c237 0 322 -75 322 -359s-85 -359 -322 -359c-236 0 -321 75 -321 359s85 359 321 359zM353 543
c-74 0 -93 -38 -93 -198s19 -198 93 -198s93 38 93 198s-19 198 -93 198z" />
    <glyph glyph-name="OE" unicode="&#x152;" horiz-adv-x="982" 
d="M944 162l10 -153c-97 -13 -235 -13 -352 -13c-32 0 -61 8 -85 23c-49 -23 -103 -33 -168 -33c-232 0 -316 75 -316 359s84 359 316 359c69 0 127 -8 179 -27c22 11 47 17 75 17c117 0 254 0 351 -13l-10 -153h-241c-24 0 -39 -15 -39 -36v-72h246v-134h-246v-88
c0 -21 15 -36 39 -36h241zM446 158v376c-23 6 -54 9 -97 9c-70 0 -87 -38 -87 -198s17 -198 87 -198c44 0 74 3 97 11z" />
    <glyph glyph-name="P" unicode="P" horiz-adv-x="646" 
d="M52 0v690c92 9 154 10 292 10c219 0 286 -51 286 -235c0 -182 -67 -233 -256 -233c-35 0 -71 2 -105 6v-238h-217zM269 385h70c59 0 74 16 74 80c0 66 -15 82 -74 82h-70v-162z" />
    <glyph glyph-name="Thorn" unicode="&#xde;" horiz-adv-x="633" 
d="M270 578h67c214 0 279 -51 279 -235c0 -182 -65 -233 -249 -233c-32 0 -65 2 -97 5v-115h-217v690h217v-112zM270 263h62c54 0 67 16 67 80c0 66 -13 82 -67 82h-62v-162z" />
    <glyph glyph-name="Q" unicode="Q" horiz-adv-x="707" 
d="M353 704c237 0 322 -75 322 -359s-85 -359 -322 -359c-236 0 -321 75 -321 359s85 359 321 359zM353 543c-74 0 -93 -38 -93 -198s19 -198 93 -198s93 38 93 198s-19 198 -93 198zM248 -129l46 103c100 -37 202 -55 329 -74l-53 -175c-136 39 -244 90 -322 146z" />
    <glyph glyph-name="R" unicode="R" horiz-adv-x="676" 
d="M663 0h-227l-45 205c-8 38 -22 47 -59 47h-67v-252h-213v690c92 9 155 10 293 10c203 0 291 -49 291 -210c0 -83 -33 -153 -140 -164v-6c38 -5 96 -24 113 -108zM265 405h75c62 0 78 14 78 71s-16 71 -78 71h-75v-142z" />
    <glyph glyph-name="Racute" unicode="&#x154;" horiz-adv-x="676" 
d="M294 720l-57 86l233 150l79 -133zM663 0h-227l-45 205c-8 38 -22 47 -59 47h-67v-252h-213v690c92 9 155 10 293 10c203 0 291 -49 291 -210c0 -83 -33 -153 -140 -164v-6c38 -5 96 -24 113 -108zM265 405h75c62 0 78 14 78 71s-16 71 -78 71h-75v-142z" />
    <glyph glyph-name="Rcaron" unicode="&#x158;" horiz-adv-x="676" 
d="M298 736l-164 131l50 77l151 -76h8l152 76l48 -77l-163 -131h-82zM663 0h-227l-45 205c-8 38 -22 47 -59 47h-67v-252h-213v690c92 9 155 10 293 10c203 0 291 -49 291 -210c0 -83 -33 -153 -140 -164v-6c38 -5 96 -24 113 -108zM265 405h75c62 0 78 14 78 71
s-16 71 -78 71h-75v-142z" />
    <glyph glyph-name="Rcommaaccent" unicode="&#x156;" horiz-adv-x="676" 
d="M663 0h-227l-45 205c-8 38 -22 47 -59 47h-67v-252h-213v690c92 9 155 10 293 10c203 0 291 -49 291 -210c0 -83 -33 -153 -140 -164v-6c38 -5 96 -24 113 -108zM265 405h75c62 0 78 14 78 71s-16 71 -78 71h-75v-142zM328 -48h38c48 0 64 -13 65 -54v-48
c0 -76 -23 -115 -61 -159l-71 19c14 34 17 69 18 103c-38 0 -55 17 -56 48l3 37c1 41 16 54 64 54z" />
    <glyph glyph-name="S" unicode="S" horiz-adv-x="610" 
d="M321 233l-137 60c-112 50 -154 107 -154 208c0 157 76 203 284 203c72 0 168 -6 251 -35l-13 -139c-60 1 -157 2 -243 2c-50 0 -64 -5 -64 -26c0 -19 13 -29 60 -47l125 -52c115 -50 155 -109 155 -210c0 -155 -67 -211 -282 -211c-47 0 -147 3 -267 34l13 152
c119 -3 214 -5 251 -5c55 0 68 5 68 24s-10 28 -47 42z" />
    <glyph glyph-name="Sacute" unicode="&#x15a;" horiz-adv-x="610" 
d="M524 823l-255 -103l-57 86l233 150zM321 233l-137 60c-112 50 -154 107 -154 208c0 157 76 203 284 203c72 0 168 -6 251 -35l-13 -139c-60 1 -157 2 -243 2c-50 0 -64 -5 -64 -26c0 -19 13 -29 60 -47l125 -52c115 -50 155 -109 155 -210c0 -155 -67 -211 -282 -211
c-47 0 -147 3 -267 34l13 152c119 -3 214 -5 251 -5c55 0 68 5 68 24s-10 28 -47 42z" />
    <glyph glyph-name="Scaron" unicode="&#x160;" horiz-adv-x="610" 
d="M518 867l-163 -131h-82l-164 131l50 77l151 -76h8l152 76zM321 233l-137 60c-112 50 -154 107 -154 208c0 157 76 203 284 203c72 0 168 -6 251 -35l-13 -139c-60 1 -157 2 -243 2c-50 0 -64 -5 -64 -26c0 -19 13 -29 60 -47l125 -52c115 -50 155 -109 155 -210
c0 -155 -67 -211 -282 -211c-47 0 -147 3 -267 34l13 152c119 -3 214 -5 251 -5c55 0 68 5 68 24s-10 28 -47 42z" />
    <glyph glyph-name="Scedilla" unicode="&#x15e;" horiz-adv-x="610" 
d="M321 233l-137 60c-112 50 -154 107 -154 208c0 157 76 203 284 203c72 0 168 -6 251 -35l-13 -139c-60 1 -157 2 -243 2c-50 0 -64 -5 -64 -26c0 -19 13 -29 60 -47l125 -52c115 -50 155 -109 155 -210c0 -155 -67 -211 -282 -211c-47 0 -147 3 -267 34l13 152
c119 -3 214 -5 251 -5c55 0 68 5 68 24s-10 28 -47 42zM218 -139l19 72c125 14 180 15 176 -65c-5 -115 -109 -164 -234 -147l22 78c44 0 83 4 87 51c2 14 -7 11 -70 11z" />
    <glyph glyph-name="Scommaaccent" unicode="&#x218;" horiz-adv-x="610" 
d="M321 233l-137 60c-112 50 -154 107 -154 208c0 157 76 203 284 203c72 0 168 -6 251 -35l-13 -139c-60 1 -157 2 -243 2c-50 0 -64 -5 -64 -26c0 -19 13 -29 60 -47l125 -52c115 -50 155 -109 155 -210c0 -155 -67 -211 -282 -211c-47 0 -147 3 -267 34l13 152
c119 -3 214 -5 251 -5c55 0 68 5 68 24s-10 28 -47 42zM255 -48h38c48 0 64 -13 65 -54v-48c0 -76 -23 -115 -61 -159l-71 19c14 34 17 69 18 103c-38 0 -55 17 -56 48l3 37c1 41 16 54 64 54z" />
    <glyph glyph-name="T" unicode="T" horiz-adv-x="623" 
d="M613 528h-193v-528h-217v528h-193v162h603v-162z" />
    <glyph glyph-name="Tbar" unicode="&#x166;" horiz-adv-x="627" 
d="M422 528v-127h115v-94h-115v-307h-217v307h-117v94h117v127h-193v162h603v-162h-193z" />
    <glyph glyph-name="Tcaron" unicode="&#x164;" horiz-adv-x="623" 
d="M270 736l-164 131l50 77l151 -76h8l152 76l48 -77l-163 -131h-82zM613 528h-193v-528h-217v528h-193v162h603v-162z" />
    <glyph glyph-name="Tcedilla" unicode="&#x162;" horiz-adv-x="623" 
d="M613 528h-193v-528h-217v528h-193v162h603v-162zM216 -125l19 72c125 14 180 15 176 -65c-5 -115 -109 -164 -234 -147l22 78c44 0 83 4 87 51c2 14 -7 11 -70 11z" />
    <glyph glyph-name="uni021A" unicode="&#x21a;" horiz-adv-x="623" 
d="M613 528h-193v-528h-217v528h-193v162h603v-162zM286 -48h38c48 0 64 -13 65 -54v-48c0 -76 -23 -115 -61 -159l-71 19c14 34 17 69 18 103c-38 0 -55 17 -56 48l3 37c1 41 16 54 64 54z" />
    <glyph glyph-name="U" unicode="U" horiz-adv-x="705" 
d="M658 690v-405c0 -220 -78 -299 -294 -299c-233 0 -317 79 -317 299v405h217v-405c0 -111 19 -138 89 -138c69 0 88 27 88 138v405h217z" />
    <glyph glyph-name="Uacute" unicode="&#xda;" horiz-adv-x="705" 
d="M563 823l-255 -103l-57 86l233 150zM658 690v-405c0 -220 -78 -299 -294 -299c-233 0 -317 79 -317 299v405h217v-405c0 -111 19 -138 89 -138c69 0 88 27 88 138v405h217z" />
    <glyph glyph-name="Ucircumflex" unicode="&#xdb;" horiz-adv-x="705" 
d="M565 779l-48 -69l-159 93h-8l-162 -93l-50 77l140 133h152zM658 690v-405c0 -220 -78 -299 -294 -299c-233 0 -317 79 -317 299v405h217v-405c0 -111 19 -138 89 -138c69 0 88 27 88 138v405h217z" />
    <glyph glyph-name="Udieresis" unicode="&#xdc;" horiz-adv-x="705" 
d="M222 904h69c26 0 39 -13 39 -39v-63c0 -26 -13 -39 -39 -39h-69c-26 0 -39 13 -39 39v63c0 26 13 39 39 39zM411 904h69c26 0 39 -13 39 -39v-63c0 -26 -13 -39 -39 -39h-69c-26 0 -39 13 -39 39v63c0 26 13 39 39 39zM658 690v-405c0 -220 -78 -299 -294 -299
c-233 0 -317 79 -317 299v405h217v-405c0 -111 19 -138 89 -138c69 0 88 27 88 138v405h217z" />
    <glyph glyph-name="Ugrave" unicode="&#xd9;" horiz-adv-x="705" 
d="M453 806l-57 -86l-255 103l79 133zM658 690v-405c0 -220 -78 -299 -294 -299c-233 0 -317 79 -317 299v405h217v-405c0 -111 19 -138 89 -138c69 0 88 27 88 138v405h217z" />
    <glyph glyph-name="Uhungarumlaut" unicode="&#x170;" horiz-adv-x="705" 
d="M402 884l-169 -176l-83 67l123 193zM617 884l-170 -176l-82 66l123 194zM658 690v-405c0 -220 -78 -299 -294 -299c-233 0 -317 79 -317 299v405h217v-405c0 -111 19 -138 89 -138c69 0 88 27 88 138v405h217z" />
    <glyph glyph-name="Umacron" unicode="&#x16a;" horiz-adv-x="705" 
d="M514 772h-320v123h320v-123zM658 690v-405c0 -220 -78 -299 -294 -299c-233 0 -317 79 -317 299v405h217v-405c0 -111 19 -138 89 -138c69 0 88 27 88 138v405h217z" />
    <glyph glyph-name="Uogonek" unicode="&#x172;" horiz-adv-x="705" 
d="M658 690v-405c0 -208 -70 -290 -260 -298c-15 -28 -30 -52 -45 -83c-17 -36 11 -39 48 -33l12 -72c-162 -61 -222 14 -198 87c9 30 40 67 96 102c-193 12 -264 95 -264 297v405h217v-405c0 -111 19 -138 89 -138c69 0 88 27 88 138v405h217z" />
    <glyph glyph-name="Uring" unicode="&#x16e;" horiz-adv-x="705" 
d="M353 963c70 0 129 -56 129 -125c0 -70 -59 -125 -129 -125s-129 55 -129 125c0 69 59 125 129 125zM353 883c-24 0 -44 -21 -44 -45c0 -25 20 -45 44 -45s44 20 44 45c0 24 -20 45 -44 45zM658 690v-405c0 -220 -78 -299 -294 -299c-233 0 -317 79 -317 299v405h217v-405
c0 -111 19 -138 89 -138c69 0 88 27 88 138v405h217z" />
    <glyph glyph-name="V" unicode="V" horiz-adv-x="670" 
d="M672 690l-168 -632c-8 -35 -37 -58 -74 -58h-190c-37 0 -66 23 -74 58l-168 632h223l89 -449c5 -25 9 -54 13 -79h24c3 25 8 54 13 79l89 449h223z" />
    <glyph glyph-name="W" unicode="W" horiz-adv-x="1003" 
d="M983 690l-86 -632c-5 -35 -37 -58 -74 -58h-184c-37 0 -70 23 -74 58l-47 381c-4 33 -6 68 -8 101h-17c-2 -34 -4 -69 -8 -102l-46 -380c-4 -35 -37 -58 -74 -58h-185c-37 0 -69 23 -74 58l-86 632h214l35 -423c2 -34 4 -71 4 -115h16c5 35 12 80 16 116l46 358
c4 38 34 64 73 64h155c39 0 68 -26 73 -64l47 -360c4 -36 10 -78 15 -114h16c0 37 3 79 5 113l34 425h214z" />
    <glyph glyph-name="Wacute" unicode="&#x1e82;" horiz-adv-x="1003" 
d="M712 823l-255 -103l-57 86l233 150zM983 690l-86 -632c-5 -35 -37 -58 -74 -58h-184c-37 0 -70 23 -74 58l-47 381c-4 33 -6 68 -8 101h-17c-2 -34 -4 -69 -8 -102l-46 -380c-4 -35 -37 -58 -74 -58h-185c-37 0 -69 23 -74 58l-86 632h214l35 -423c2 -34 4 -71 4 -115h16
c5 35 12 80 16 116l46 358c4 38 34 64 73 64h155c39 0 68 -26 73 -64l47 -360c4 -36 10 -78 15 -114h16c0 37 3 79 5 113l34 425h214z" />
    <glyph glyph-name="Wcircumflex" unicode="&#x174;" horiz-adv-x="1003" 
d="M714 779l-48 -69l-159 93h-8l-162 -93l-50 77l140 133h152zM983 690l-86 -632c-5 -35 -37 -58 -74 -58h-184c-37 0 -70 23 -74 58l-47 381c-4 33 -6 68 -8 101h-17c-2 -34 -4 -69 -8 -102l-46 -380c-4 -35 -37 -58 -74 -58h-185c-37 0 -69 23 -74 58l-86 632h214l35 -423
c2 -34 4 -71 4 -115h16c5 35 12 80 16 116l46 358c4 38 34 64 73 64h155c39 0 68 -26 73 -64l47 -360c4 -36 10 -78 15 -114h16c0 37 3 79 5 113l34 425h214z" />
    <glyph glyph-name="Wdieresis" unicode="&#x1e84;" horiz-adv-x="1003" 
d="M371 904h69c26 0 39 -13 39 -39v-63c0 -26 -13 -39 -39 -39h-69c-26 0 -39 13 -39 39v63c0 26 13 39 39 39zM560 904h69c26 0 39 -13 39 -39v-63c0 -26 -13 -39 -39 -39h-69c-26 0 -39 13 -39 39v63c0 26 13 39 39 39zM983 690l-86 -632c-5 -35 -37 -58 -74 -58h-184
c-37 0 -70 23 -74 58l-47 381c-4 33 -6 68 -8 101h-17c-2 -34 -4 -69 -8 -102l-46 -380c-4 -35 -37 -58 -74 -58h-185c-37 0 -69 23 -74 58l-86 632h214l35 -423c2 -34 4 -71 4 -115h16c5 35 12 80 16 116l46 358c4 38 34 64 73 64h155c39 0 68 -26 73 -64l47 -360
c4 -36 10 -78 15 -114h16c0 37 3 79 5 113l34 425h214z" />
    <glyph glyph-name="Wgrave" unicode="&#x1e80;" horiz-adv-x="1003" 
d="M602 806l-57 -86l-255 103l79 133zM983 690l-86 -632c-5 -35 -37 -58 -74 -58h-184c-37 0 -70 23 -74 58l-47 381c-4 33 -6 68 -8 101h-17c-2 -34 -4 -69 -8 -102l-46 -380c-4 -35 -37 -58 -74 -58h-185c-37 0 -69 23 -74 58l-86 632h214l35 -423c2 -34 4 -71 4 -115h16
c5 35 12 80 16 116l46 358c4 38 34 64 73 64h155c39 0 68 -26 73 -64l47 -360c4 -36 10 -78 15 -114h16c0 37 3 79 5 113l34 425h214z" />
    <glyph glyph-name="X" unicode="X" horiz-adv-x="677" 
d="M467 0l-128 290l-129 -290h-215l171 352l-157 338h214l116 -273l115 273h214l-157 -338l171 -352h-215z" />
    <glyph glyph-name="Y" unicode="Y" horiz-adv-x="654" 
d="M436 215v-215h-217v213l-229 477h223l87 -217c12 -30 16 -66 21 -97h13c5 31 10 68 21 98l86 216h223z" />
    <glyph glyph-name="Yacute" unicode="&#xdd;" horiz-adv-x="654" 
d="M282 720l-57 86l233 150l79 -133zM436 215v-215h-217v213l-229 477h223l87 -217c12 -30 16 -66 21 -97h13c5 31 10 68 21 98l86 216h223z" />
    <glyph glyph-name="Ycircumflex" unicode="&#x176;" horiz-adv-x="654" 
d="M162 710l-50 77l140 133h152l135 -141l-48 -69l-159 93h-8zM436 215v-215h-217v213l-229 477h223l87 -217c12 -30 16 -66 21 -97h13c5 31 10 68 21 98l86 216h223z" />
    <glyph glyph-name="Ydieresis" unicode="&#x178;" horiz-adv-x="654" 
d="M265 763h-69c-26 0 -39 13 -39 39v63c0 26 13 39 39 39h69c26 0 39 -13 39 -39v-63c0 -26 -13 -39 -39 -39zM454 763h-69c-26 0 -39 13 -39 39v63c0 26 13 39 39 39h69c26 0 39 -13 39 -39v-63c0 -26 -13 -39 -39 -39zM436 215v-215h-217v213l-229 477h223l87 -217
c12 -30 16 -66 21 -97h13c5 31 10 68 21 98l86 216h223z" />
    <glyph glyph-name="Ygrave" unicode="&#x1ef2;" horiz-adv-x="654" 
d="M370 720l-255 103l79 133l233 -150zM436 215v-215h-217v213l-229 477h223l87 -217c12 -30 16 -66 21 -97h13c5 31 10 68 21 98l86 216h223z" />
    <glyph glyph-name="Z" unicode="Z" horiz-adv-x="605" 
d="M577 152v-152h-548v152l298 386h-288v152h528v-152l-298 -386h308z" />
    <glyph glyph-name="Zacute" unicode="&#x179;" horiz-adv-x="605" 
d="M264 720l-57 86l233 150l79 -133zM577 152v-152h-548v152l298 386h-288v152h528v-152l-298 -386h308z" />
    <glyph glyph-name="Zcaron" unicode="&#x17d;" horiz-adv-x="605" 
d="M268 736l-164 131l50 77l151 -76h8l152 76l48 -77l-163 -131h-82zM577 152v-152h-548v152l298 386h-288v152h528v-152l-298 -386h308z" />
    <glyph glyph-name="Zdotaccent" unicode="&#x17b;" horiz-adv-x="605" 
d="M341 752h-63c-40 0 -59 19 -59 57v47c0 39 19 57 59 57h63c40 0 59 -18 59 -57v-47c0 -38 -19 -57 -59 -57zM577 152v-152h-548v152l298 386h-288v152h528v-152l-298 -386h308z" />
    <glyph glyph-name="a" unicode="a" 
d="M67 356l-19 133c76 14 209 25 285 25c141 0 219 -48 219 -204v-310h-167l-19 70c-34 -43 -88 -84 -173 -84c-93 0 -172 48 -172 142v50c0 80 63 129 165 129h156v4c-1 35 -15 50 -59 50c-52 0 -131 -1 -216 -5zM225 175v-16c0 -18 14 -31 42 -31c23 0 50 10 75 25v53h-79
c-25 0 -38 -13 -38 -31z" />
    <glyph glyph-name="aacute" unicode="&#xe1;" 
d="M258 532l-57 86l233 150l79 -133zM67 356l-19 133c76 14 209 25 285 25c141 0 219 -48 219 -204v-310h-167l-19 70c-34 -43 -88 -84 -173 -84c-93 0 -172 48 -172 142v50c0 80 63 129 165 129h156v4c-1 35 -15 50 -59 50c-52 0 -131 -1 -216 -5zM225 175v-16
c0 -18 14 -31 42 -31c23 0 50 10 75 25v53h-79c-25 0 -38 -13 -38 -31z" />
    <glyph glyph-name="abreve" unicode="&#x103;" 
d="M384 734l97 -13c16 -89 -55 -172 -178 -172s-195 83 -179 172l97 13c0 -42 22 -59 82 -59c59 0 81 17 81 59zM67 356l-19 133c76 14 209 25 285 25c141 0 219 -48 219 -204v-310h-167l-19 70c-34 -43 -88 -84 -173 -84c-93 0 -172 48 -172 142v50c0 80 63 129 165 129
h156v4c-1 35 -15 50 -59 50c-52 0 -131 -1 -216 -5zM225 175v-16c0 -18 14 -31 42 -31c23 0 50 10 75 25v53h-79c-25 0 -38 -13 -38 -31z" />
    <glyph glyph-name="acircumflex" unicode="&#xe2;" 
d="M138 522l-50 77l140 133h152l135 -141l-48 -69l-159 93h-8zM67 356l-19 133c76 14 209 25 285 25c141 0 219 -48 219 -204v-310h-167l-19 70c-34 -43 -88 -84 -173 -84c-93 0 -172 48 -172 142v50c0 80 63 129 165 129h156v4c-1 35 -15 50 -59 50c-52 0 -131 -1 -216 -5z
M225 175v-16c0 -18 14 -31 42 -31c23 0 50 10 75 25v53h-79c-25 0 -38 -13 -38 -31z" />
    <glyph glyph-name="adieresis" unicode="&#xe4;" 
d="M241 575h-69c-26 0 -39 13 -39 39v63c0 26 13 39 39 39h69c26 0 39 -13 39 -39v-63c0 -26 -13 -39 -39 -39zM430 575h-69c-26 0 -39 13 -39 39v63c0 26 13 39 39 39h69c26 0 39 -13 39 -39v-63c0 -26 -13 -39 -39 -39zM67 356l-19 133c76 14 209 25 285 25
c141 0 219 -48 219 -204v-310h-167l-19 70c-34 -43 -88 -84 -173 -84c-93 0 -172 48 -172 142v50c0 80 63 129 165 129h156v4c-1 35 -15 50 -59 50c-52 0 -131 -1 -216 -5zM225 175v-16c0 -18 14 -31 42 -31c23 0 50 10 75 25v53h-79c-25 0 -38 -13 -38 -31z" />
    <glyph glyph-name="agrave" unicode="&#xe0;" 
d="M346 532l-255 103l79 133l233 -150zM67 356l-19 133c76 14 209 25 285 25c141 0 219 -48 219 -204v-310h-167l-19 70c-34 -43 -88 -84 -173 -84c-93 0 -172 48 -172 142v50c0 80 63 129 165 129h156v4c-1 35 -15 50 -59 50c-52 0 -131 -1 -216 -5zM225 175v-16
c0 -18 14 -31 42 -31c23 0 50 10 75 25v53h-79c-25 0 -38 -13 -38 -31z" />
    <glyph glyph-name="amacron" unicode="&#x101;" 
d="M464 584h-320v123h320v-123zM67 356l-19 133c76 14 209 25 285 25c141 0 219 -48 219 -204v-310h-167l-19 70c-34 -43 -88 -84 -173 -84c-93 0 -172 48 -172 142v50c0 80 63 129 165 129h156v4c-1 35 -15 50 -59 50c-52 0 -131 -1 -216 -5zM225 175v-16
c0 -18 14 -31 42 -31c23 0 50 10 75 25v53h-79c-25 0 -38 -13 -38 -31z" />
    <glyph glyph-name="aogonek" unicode="&#x105;" 
d="M553 -120l12 -72c-162 -61 -222 14 -198 87c10 31 42 70 102 105h-84l-19 70c-34 -43 -88 -84 -173 -84c-93 0 -172 48 -172 142v50c0 80 63 129 165 129h156v4c-1 35 -15 50 -59 50c-52 0 -131 -1 -216 -5l-19 133c76 14 209 25 285 25c141 0 219 -48 219 -204v-310
c-16 -29 -31 -54 -47 -87c-17 -36 11 -39 48 -33zM225 175v-16c0 -18 14 -31 42 -31c23 0 50 10 75 25v53h-79c-25 0 -38 -13 -38 -31z" />
    <glyph glyph-name="aring" unicode="&#xe5;" 
d="M303 525c-70 0 -129 55 -129 125c0 69 59 125 129 125s129 -56 129 -125c0 -70 -59 -125 -129 -125zM303 695c-24 0 -44 -21 -44 -45c0 -25 20 -45 44 -45s44 20 44 45c0 24 -20 45 -44 45zM67 356l-19 133c76 14 209 25 285 25c141 0 219 -48 219 -204v-310h-167l-19 70
c-34 -43 -88 -84 -173 -84c-93 0 -172 48 -172 142v50c0 80 63 129 165 129h156v4c-1 35 -15 50 -59 50c-52 0 -131 -1 -216 -5zM225 175v-16c0 -18 14 -31 42 -31c23 0 50 10 75 25v53h-79c-25 0 -38 -13 -38 -31z" />
    <glyph glyph-name="atilde" unicode="&#xe3;" 
d="M199 563h-87c-22 119 32 173 85 169c68 -5 117 -32 169 -43c30 -6 29 6 29 38h87c21 -112 -23 -173 -85 -169c-68 5 -125 35 -170 43c-30 5 -28 -6 -28 -38zM67 356l-19 133c76 14 209 25 285 25c141 0 219 -48 219 -204v-310h-167l-19 70c-34 -43 -88 -84 -173 -84
c-93 0 -172 48 -172 142v50c0 80 63 129 165 129h156v4c-1 35 -15 50 -59 50c-52 0 -131 -1 -216 -5zM225 175v-16c0 -18 14 -31 42 -31c23 0 50 10 75 25v53h-79c-25 0 -38 -13 -38 -31z" />
    <glyph glyph-name="ae" unicode="&#xe6;" horiz-adv-x="886" 
d="M672 204h-126c9 -41 31 -55 88 -55c37 0 113 2 198 11l19 -126c-70 -36 -151 -46 -240 -46c-119 0 -194 30 -236 88c-33 -44 -90 -90 -186 -90c-91 0 -168 48 -168 142v50c0 77 62 126 161 126h149v7c0 35 -14 50 -54 50c-51 0 -128 -1 -211 -5l-19 133
c74 14 206 25 280 25c51 0 94 -7 128 -23c40 16 91 23 155 23c185 0 254 -61 255 -178c1 -93 -46 -132 -193 -132zM543 303h70c44 0 51 4 51 38c0 32 -14 38 -48 38c-54 1 -70 -8 -73 -76zM225 175v-16c0 -18 13 -31 39 -31c24 0 51 11 76 27c-3 16 -6 33 -7 51h-72
c-24 0 -36 -13 -36 -31z" />
    <glyph glyph-name="b" unicode="b" horiz-adv-x="618" 
d="M252 700l2 -139c1 -40 -4 -82 -15 -120c41 38 99 73 163 73c140 0 189 -75 189 -258c0 -135 -41 -268 -269 -268c-73 0 -222 12 -280 42v670h210zM252 344v-211c23 -3 50 -5 66 -4c43 3 57 24 57 126c0 85 -13 102 -61 102c-26 0 -44 -6 -62 -13z" />
    <glyph glyph-name="c" unicode="c" horiz-adv-x="528" 
d="M491 161l19 -131c-59 -31 -141 -42 -218 -42c-196 0 -266 70 -266 263s71 263 268 263c61 0 149 -8 209 -37l-21 -130h-152c-64 0 -84 -19 -84 -96c0 -78 20 -97 84 -97c34 0 98 0 161 7z" />
    <glyph glyph-name="cacute" unicode="&#x107;" horiz-adv-x="528" 
d="M502 635l-255 -103l-57 86l233 150zM491 161l19 -131c-59 -31 -141 -42 -218 -42c-196 0 -266 70 -266 263s71 263 268 263c61 0 149 -8 209 -37l-21 -130h-152c-64 0 -84 -19 -84 -96c0 -78 20 -97 84 -97c34 0 98 0 161 7z" />
    <glyph glyph-name="ccaron" unicode="&#x10d;" horiz-adv-x="528" 
d="M496 679l-163 -131h-82l-164 131l50 77l151 -76h8l152 76zM491 161l19 -131c-59 -31 -141 -42 -218 -42c-196 0 -266 70 -266 263s71 263 268 263c61 0 149 -8 209 -37l-21 -130h-152c-64 0 -84 -19 -84 -96c0 -78 20 -97 84 -97c34 0 98 0 161 7z" />
    <glyph glyph-name="ccedilla" unicode="&#xe7;" horiz-adv-x="528" 
d="M491 161l19 -131c-59 -31 -141 -42 -218 -42c-196 0 -266 70 -266 263s71 263 268 263c61 0 149 -8 209 -37l-21 -130h-152c-64 0 -84 -19 -84 -96c0 -78 20 -97 84 -97c34 0 98 0 161 7zM189 -122l19 72c125 14 180 15 176 -65c-5 -115 -109 -164 -234 -147l22 78
c44 0 83 4 87 51c2 14 -7 11 -70 11z" />
    <glyph glyph-name="cdotaccent" unicode="&#x10b;" horiz-adv-x="528" 
d="M261 725h63c40 0 59 -18 59 -57v-47c0 -38 -19 -57 -59 -57h-63c-40 0 -59 19 -59 57v47c0 39 19 57 59 57zM491 161l19 -131c-59 -31 -141 -42 -218 -42c-196 0 -266 70 -266 263s71 263 268 263c61 0 149 -8 209 -37l-21 -130h-152c-64 0 -84 -19 -84 -96
c0 -78 20 -97 84 -97c34 0 98 0 161 7z" />
    <glyph glyph-name="d" unicode="d" horiz-adv-x="620" 
d="M577 700v-700h-167l-17 82c-29 -54 -86 -94 -184 -94c-131 0 -181 98 -181 268c0 205 66 258 190 258c58 0 112 -12 153 -42c-2 35 -4 73 -4 109v119h210zM367 171v193c-18 7 -36 13 -65 13c-42 0 -58 -12 -58 -119c0 -92 16 -102 55 -102c32 0 50 6 68 15z" />
    <glyph glyph-name="eth" unicode="&#xf0;" horiz-adv-x="604" 
d="M558 641l-67 -67c58 -73 85 -172 85 -283c0 -231 -87 -305 -279 -305c-185 0 -270 72 -270 228c0 164 60 239 225 239c26 0 61 -2 94 -12c-19 99 -73 138 -217 127l17 130c83 6 153 -4 211 -27l82 83zM299 130c50 0 57 25 57 160v18c-17 2 -35 3 -54 3
c-37 0 -55 -6 -55 -93c0 -71 9 -88 52 -88z" />
    <glyph glyph-name="dcaron" unicode="&#x10f;" horiz-adv-x="620" 
d="M676 703h32c42 0 56 -11 57 -49v-44c0 -70 -20 -106 -53 -146l-61 17c11 31 14 64 14 95c-32 0 -47 16 -48 44l3 34c1 38 14 49 56 49zM367 700h210v-700h-167l-17 82c-29 -54 -86 -94 -184 -94c-131 0 -181 98 -181 268c0 205 66 258 190 258c58 0 112 -12 153 -42
c-2 35 -4 73 -4 109v119zM367 171v193c-18 7 -36 13 -65 13c-42 0 -58 -12 -58 -119c0 -92 16 -102 55 -102c32 0 50 6 68 15z" />
    <glyph glyph-name="dcroat" unicode="&#x111;" horiz-adv-x="617" 
d="M631 547h-54v-547h-167l-17 82c-29 -54 -86 -94 -184 -94c-131 0 -181 98 -181 268c0 205 66 258 190 258c58 0 112 -12 153 -42c-2 24 -3 50 -4 75h-107v84h107v69h210v-69h54v-84zM367 171v193c-18 7 -36 13 -65 13c-42 0 -58 -12 -58 -119c0 -92 16 -102 55 -102
c32 0 50 6 68 15z" />
    <glyph glyph-name="e" unicode="e" 
d="M375 204h-125c8 -41 30 -55 83 -55c40 0 117 2 203 11l19 -126c-71 -36 -155 -46 -245 -46c-209 0 -285 88 -285 258c0 197 77 268 284 268c188 0 259 -61 260 -178c1 -93 -47 -132 -194 -132zM246 303h70c45 0 52 4 52 38c0 32 -15 38 -53 38c-51 1 -66 -8 -69 -76z" />
    <glyph glyph-name="eacute" unicode="&#xe9;" 
d="M267 532l-57 86l233 150l79 -133zM375 204h-125c8 -41 30 -55 83 -55c40 0 117 2 203 11l19 -126c-71 -36 -155 -46 -245 -46c-209 0 -285 88 -285 258c0 197 77 268 284 268c188 0 259 -61 260 -178c1 -93 -47 -132 -194 -132zM246 303h70c45 0 52 4 52 38
c0 32 -15 38 -53 38c-51 1 -66 -8 -69 -76z" />
    <glyph glyph-name="ecaron" unicode="&#x11b;" 
d="M271 548l-164 131l50 77l151 -76h8l152 76l48 -77l-163 -131h-82zM375 204h-125c8 -41 30 -55 83 -55c40 0 117 2 203 11l19 -126c-71 -36 -155 -46 -245 -46c-209 0 -285 88 -285 258c0 197 77 268 284 268c188 0 259 -61 260 -178c1 -93 -47 -132 -194 -132zM246 303
h70c45 0 52 4 52 38c0 32 -15 38 -53 38c-51 1 -66 -8 -69 -76z" />
    <glyph glyph-name="ecircumflex" unicode="&#xea;" 
d="M147 522l-50 77l140 133h152l135 -141l-48 -69l-159 93h-8zM375 204h-125c8 -41 30 -55 83 -55c40 0 117 2 203 11l19 -126c-71 -36 -155 -46 -245 -46c-209 0 -285 88 -285 258c0 197 77 268 284 268c188 0 259 -61 260 -178c1 -93 -47 -132 -194 -132zM246 303h70
c45 0 52 4 52 38c0 32 -15 38 -53 38c-51 1 -66 -8 -69 -76z" />
    <glyph glyph-name="edieresis" unicode="&#xeb;" 
d="M250 575h-69c-26 0 -39 13 -39 39v63c0 26 13 39 39 39h69c26 0 39 -13 39 -39v-63c0 -26 -13 -39 -39 -39zM439 575h-69c-26 0 -39 13 -39 39v63c0 26 13 39 39 39h69c26 0 39 -13 39 -39v-63c0 -26 -13 -39 -39 -39zM375 204h-125c8 -41 30 -55 83 -55
c40 0 117 2 203 11l19 -126c-71 -36 -155 -46 -245 -46c-209 0 -285 88 -285 258c0 197 77 268 284 268c188 0 259 -61 260 -178c1 -93 -47 -132 -194 -132zM246 303h70c45 0 52 4 52 38c0 32 -15 38 -53 38c-51 1 -66 -8 -69 -76z" />
    <glyph glyph-name="edotaccent" unicode="&#x117;" 
d="M344 564h-63c-40 0 -59 19 -59 57v47c0 39 19 57 59 57h63c40 0 59 -18 59 -57v-47c0 -38 -19 -57 -59 -57zM375 204h-125c8 -41 30 -55 83 -55c40 0 117 2 203 11l19 -126c-71 -36 -155 -46 -245 -46c-209 0 -285 88 -285 258c0 197 77 268 284 268
c188 0 259 -61 260 -178c1 -93 -47 -132 -194 -132zM246 303h70c45 0 52 4 52 38c0 32 -15 38 -53 38c-51 1 -66 -8 -69 -76z" />
    <glyph glyph-name="egrave" unicode="&#xe8;" 
d="M355 532l-255 103l79 133l233 -150zM375 204h-125c8 -41 30 -55 83 -55c40 0 117 2 203 11l19 -126c-71 -36 -155 -46 -245 -46c-209 0 -285 88 -285 258c0 197 77 268 284 268c188 0 259 -61 260 -178c1 -93 -47 -132 -194 -132zM246 303h70c45 0 52 4 52 38
c0 32 -15 38 -53 38c-51 1 -66 -8 -69 -76z" />
    <glyph glyph-name="emacron" unicode="&#x113;" 
d="M473 584h-320v123h320v-123zM375 204h-125c8 -41 30 -55 83 -55c40 0 117 2 203 11l19 -126c-71 -36 -155 -46 -245 -46c-209 0 -285 88 -285 258c0 197 77 268 284 268c188 0 259 -61 260 -178c1 -93 -47 -132 -194 -132zM246 303h70c45 0 52 4 52 38
c0 32 -15 38 -53 38c-51 1 -66 -8 -69 -76z" />
    <glyph glyph-name="eogonek" unicode="&#x119;" 
d="M536 160l19 -126c-16 -29 -31 -54 -47 -87c-17 -36 11 -39 48 -33l12 -72c-162 -61 -222 14 -198 87c6 20 21 42 46 65c-34 -4 -69 -6 -106 -6c-209 0 -285 88 -285 258c0 197 77 268 284 268c188 0 259 -61 260 -178c1 -93 -47 -132 -194 -132h-125c8 -41 30 -55 83 -55
c40 0 117 2 203 11zM246 303h70c45 0 52 4 52 38c0 32 -15 38 -53 38c-51 1 -66 -8 -69 -76z" />
    <glyph glyph-name="f" unicode="f" horiz-adv-x="427" 
d="M439 584h-88c-37 0 -48 -13 -48 -52v-32h119v-126h-119v-374h-211v374h-84v121l84 5v61c0 94 47 163 184 163c40 0 133 -4 183 -14z" />
    <glyph glyph-name="g" unicode="g" horiz-adv-x="604" 
d="M591 423l-55 -9c6 -17 8 -36 8 -58c0 -116 -67 -158 -257 -158c-27 0 -52 1 -74 3c-12 -15 -8 -43 28 -45l182 -12c114 -8 160 -58 160 -157c0 -142 -86 -168 -289 -168c-239 0 -287 39 -287 142c0 47 17 80 78 106c-45 48 -27 128 28 154c-59 23 -84 66 -84 135
c0 115 70 158 259 158c60 0 108 -4 145 -14h168zM287 312c49 0 62 9 62 44s-13 43 -62 43s-63 -8 -63 -43s14 -44 63 -44zM309 19l-89 7c-13 -10 -17 -17 -17 -33c0 -26 19 -32 88 -32c76 0 96 5 96 27c0 25 -24 27 -78 31z" />
    <glyph glyph-name="gbreve" unicode="&#x11f;" horiz-adv-x="604" 
d="M373 734l97 -13c16 -89 -55 -172 -178 -172s-195 83 -179 172l97 13c0 -42 22 -59 82 -59c59 0 81 17 81 59zM591 423l-55 -9c6 -17 8 -36 8 -58c0 -116 -67 -158 -257 -158c-27 0 -52 1 -74 3c-12 -15 -8 -43 28 -45l182 -12c114 -8 160 -58 160 -157
c0 -142 -86 -168 -289 -168c-239 0 -287 39 -287 142c0 47 17 80 78 106c-45 48 -27 128 28 154c-59 23 -84 66 -84 135c0 115 70 158 259 158c60 0 108 -4 145 -14h168zM287 312c49 0 62 9 62 44s-13 43 -62 43s-63 -8 -63 -43s14 -44 63 -44zM309 19l-89 7
c-13 -10 -17 -17 -17 -33c0 -26 19 -32 88 -32c76 0 96 5 96 27c0 25 -24 27 -78 31z" />
    <glyph glyph-name="gcommaaccent" unicode="&#x123;" horiz-adv-x="604" 
d="M322 548h-38c-48 0 -64 13 -65 54v48c0 76 23 115 61 159l71 -19c-14 -34 -17 -69 -18 -103c38 0 55 -17 56 -48l-3 -37c-1 -41 -16 -54 -64 -54zM591 423l-55 -9c6 -17 8 -36 8 -58c0 -116 -67 -158 -257 -158c-27 0 -52 1 -74 3c-12 -15 -8 -43 28 -45l182 -12
c114 -8 160 -58 160 -157c0 -142 -86 -168 -289 -168c-239 0 -287 39 -287 142c0 47 17 80 78 106c-45 48 -27 128 28 154c-59 23 -84 66 -84 135c0 115 70 158 259 158c60 0 108 -4 145 -14h168zM287 312c49 0 62 9 62 44s-13 43 -62 43s-63 -8 -63 -43s14 -44 63 -44z
M309 19l-89 7c-13 -10 -17 -17 -17 -33c0 -26 19 -32 88 -32c76 0 96 5 96 27c0 25 -24 27 -78 31z" />
    <glyph glyph-name="gdotaccent" unicode="&#x121;" horiz-adv-x="604" 
d="M324 564h-63c-40 0 -59 19 -59 57v47c0 39 19 57 59 57h63c40 0 59 -18 59 -57v-47c0 -38 -19 -57 -59 -57zM591 423l-55 -9c6 -17 8 -36 8 -58c0 -116 -67 -158 -257 -158c-27 0 -52 1 -74 3c-12 -15 -8 -43 28 -45l182 -12c114 -8 160 -58 160 -157
c0 -142 -86 -168 -289 -168c-239 0 -287 39 -287 142c0 47 17 80 78 106c-45 48 -27 128 28 154c-59 23 -84 66 -84 135c0 115 70 158 259 158c60 0 108 -4 145 -14h168zM287 312c49 0 62 9 62 44s-13 43 -62 43s-63 -8 -63 -43s14 -44 63 -44zM309 19l-89 7
c-13 -10 -17 -17 -17 -33c0 -26 19 -32 88 -32c76 0 96 5 96 27c0 25 -24 27 -78 31z" />
    <glyph glyph-name="h" unicode="h" horiz-adv-x="621" 
d="M254 700v-149c0 -40 -4 -79 -10 -111c62 50 128 74 189 74c97 0 148 -48 148 -140v-374h-210v307c0 22 -10 30 -36 30c-22 0 -45 -1 -82 -12v-325h-210v700h211z" />
    <glyph glyph-name="hbar" unicode="&#x127;" horiz-adv-x="624" 
d="M362 547h-105c0 -38 -5 -76 -10 -107c62 50 128 74 189 74c97 0 148 -48 148 -140v-374h-210v307c0 22 -10 30 -36 30c-22 0 -45 -1 -82 -12v-325h-210v547h-55v84h55v69h210v-69h106v-84z" />
    <glyph glyph-name="i" unicode="i" horiz-adv-x="303" 
d="M107 729h89c41 0 61 -20 61 -62v-51c0 -42 -20 -62 -61 -62h-89c-41 0 -61 20 -61 62v51c0 42 20 62 61 62zM256 0h-209v500h209v-500z" />
    <glyph glyph-name="dotlessi" unicode="&#x131;" horiz-adv-x="305" 
d="M258 0h-211v500h211v-500z" />
    <glyph glyph-name="iacute" unicode="&#xed;" horiz-adv-x="305" 
d="M363 635l-255 -103l-57 86l233 150zM258 0h-211v500h211v-500z" />
    <glyph glyph-name="icircumflex" unicode="&#xee;" horiz-adv-x="305" 
d="M365 591l-48 -69l-159 93h-8l-162 -93l-50 77l140 133h152zM258 0h-211v500h211v-500z" />
    <glyph glyph-name="idieresis" unicode="&#xef;" horiz-adv-x="305" 
d="M22 716h69c26 0 39 -13 39 -39v-63c0 -26 -13 -39 -39 -39h-69c-26 0 -39 13 -39 39v63c0 26 13 39 39 39zM211 716h69c26 0 39 -13 39 -39v-63c0 -26 -13 -39 -39 -39h-69c-26 0 -39 13 -39 39v63c0 26 13 39 39 39zM258 0h-211v500h211v-500z" />
    <glyph glyph-name="igrave" unicode="&#xec;" horiz-adv-x="305" 
d="M253 618l-57 -86l-255 103l79 133zM258 0h-211v500h211v-500z" />
    <glyph glyph-name="ij" unicode="&#x133;" horiz-adv-x="607" 
d="M408 739h89c41 0 61 -20 61 -62v-51c0 -42 -20 -62 -61 -62h-89c-41 0 -61 20 -61 62v51c0 42 20 62 61 62zM107 729h89c41 0 61 -20 61 -62v-51c0 -42 -20 -62 -61 -62h-89c-41 0 -61 20 -61 62v51c0 42 20 62 61 62zM256 0h-209v500h209v-500zM560 500v-442
c0 -104 -61 -207 -162 -248l-116 92c53 53 69 99 69 156v442h209z" />
    <glyph glyph-name="imacron" unicode="&#x12b;" horiz-adv-x="305" 
d="M314 584h-320v123h320v-123zM258 0h-211v500h211v-500z" />
    <glyph glyph-name="iogonek" unicode="&#x12f;" horiz-adv-x="305" 
d="M185 564h-63c-40 0 -59 19 -59 57v47c0 39 19 57 59 57h63c40 0 59 -18 59 -57v-47c0 -38 -19 -57 -59 -57zM258 0h-20c-16 -29 -31 -54 -47 -87c-17 -36 11 -39 48 -33l12 -72c-162 -61 -222 14 -198 87c10 31 42 70 102 105h-108v500h211v-500z" />
    <glyph glyph-name="j" unicode="j" horiz-adv-x="304" 
d="M105 739h89c41 0 61 -20 61 -62v-51c0 -42 -20 -62 -61 -62h-89c-41 0 -61 20 -61 62v51c0 42 20 62 61 62zM257 500v-442c0 -104 -61 -207 -162 -248l-116 92c53 53 69 99 69 156v442h209z" />
    <glyph glyph-name="k" unicode="k" horiz-adv-x="609" 
d="M273 216h-27c4 -26 7 -52 7 -73v-143h-210v700h210v-268c0 -32 -3 -66 -8 -98h29l95 166h230l-105 -164c-15 -27 -43 -51 -58 -60v-4c15 -8 43 -39 58 -67l124 -205h-231z" />
    <glyph glyph-name="kcommaaccent" unicode="&#x137;" horiz-adv-x="609" 
d="M253 0h-210v700h210v-268c0 -32 -3 -66 -8 -98h29l95 166h230l-105 -164c-15 -27 -43 -51 -58 -60v-4c15 -8 43 -39 58 -67l124 -205h-231l-114 216h-27c4 -26 7 -52 7 -73v-143zM287 -38h38c48 0 64 -13 65 -54v-48c0 -76 -23 -115 -61 -159l-71 19c14 34 17 69 18 103
c-38 0 -55 17 -56 48l3 37c1 41 16 54 64 54z" />
    <glyph glyph-name="l" unicode="l" horiz-adv-x="358" 
d="M253 700v-518c0 -26 16 -36 50 -36h34l23 -134c-30 -18 -108 -26 -147 -26c-105 0 -169 52 -169 140v574h209z" />
    <glyph glyph-name="lacute" unicode="&#x13a;" horiz-adv-x="358" 
d="M365 828l-255 -103l-57 86l233 150zM253 700v-518c0 -26 16 -36 50 -36h34l23 -134c-30 -18 -108 -26 -147 -26c-105 0 -169 52 -169 140v574h209z" />
    <glyph glyph-name="lcaron" unicode="&#x13e;" horiz-adv-x="358" 
d="M351 703h32c42 0 56 -11 57 -49v-44c0 -70 -20 -106 -53 -146l-61 17c11 31 14 64 14 95c-32 0 -47 16 -48 44l3 34c1 38 14 49 56 49zM253 700v-518c0 -26 16 -36 50 -36h34l23 -134c-30 -18 -108 -26 -147 -26c-105 0 -169 52 -169 140v574h209z" />
    <glyph glyph-name="lcommaaccent" unicode="&#x13c;" horiz-adv-x="358" 
d="M253 700v-518c0 -26 16 -36 50 -36h34l23 -134c-30 -18 -108 -26 -147 -26c-105 0 -169 52 -169 140v574h209zM172 -48h38c48 0 64 -13 65 -54v-48c0 -76 -23 -115 -61 -159l-71 19c14 34 17 69 18 103c-38 0 -55 17 -56 48l3 37c1 41 16 54 64 54z" />
    <glyph glyph-name="ldot" unicode="&#x140;" horiz-adv-x="478" 
d="M253 700v-518c0 -26 16 -36 50 -36h34l23 -134c-30 -18 -108 -26 -147 -26c-105 0 -169 52 -169 140v574h209zM417 311h-63c-40 0 -59 18 -59 57v47c0 38 19 57 59 57h63c40 0 59 -19 59 -57v-47c0 -39 -19 -57 -59 -57z" />
    <glyph glyph-name="lslash" unicode="&#x142;" horiz-adv-x="390" 
d="M366 146l23 -134c-30 -18 -108 -26 -147 -26c-105 0 -169 52 -169 140v160l-69 -27v104l69 27v310h209v-229l83 32v-104l-83 -32v-185c0 -26 16 -36 50 -36h34z" />
    <glyph glyph-name="m" unicode="m" horiz-adv-x="885" 
d="M207 500l18 -73c56 59 106 87 179 87c67 0 111 -25 130 -74c51 50 100 74 167 74c95 0 144 -48 144 -140v-374h-209v307c0 22 -8 30 -33 30c-15 0 -30 -1 -58 -12v-325h-202v307c0 22 -10 30 -34 30c-15 0 -29 -1 -57 -11v-326h-209v500h164z" />
    <glyph glyph-name="n" unicode="n" horiz-adv-x="621" 
d="M208 500l19 -74c65 60 139 88 206 88c97 0 148 -48 148 -140v-374h-210v307c0 22 -10 30 -36 30c-22 0 -45 -1 -82 -12v-325h-210v500h165z" />
    <glyph glyph-name="nacute" unicode="&#x144;" horiz-adv-x="621" 
d="M275 532l-57 86l233 150l79 -133zM208 500l19 -74c65 60 139 88 206 88c97 0 148 -48 148 -140v-374h-210v307c0 22 -10 30 -36 30c-22 0 -45 -1 -82 -12v-325h-210v500h165z" />
    <glyph glyph-name="ncaron" unicode="&#x148;" horiz-adv-x="621" 
d="M279 548l-164 131l50 77l151 -76h8l152 76l48 -77l-163 -131h-82zM208 500l19 -74c65 60 139 88 206 88c97 0 148 -48 148 -140v-374h-210v307c0 22 -10 30 -36 30c-22 0 -45 -1 -82 -12v-325h-210v500h165z" />
    <glyph glyph-name="ncommaaccent" unicode="&#x146;" horiz-adv-x="621" 
d="M208 500l19 -74c65 60 139 88 206 88c97 0 148 -48 148 -140v-374h-210v307c0 22 -10 30 -36 30c-22 0 -45 -1 -82 -12v-325h-210v500h165zM280 -38h38c48 0 64 -13 65 -54v-48c0 -76 -23 -115 -61 -159l-71 19c14 34 17 69 18 103c-38 0 -55 17 -56 48l3 37
c1 41 16 54 64 54z" />
    <glyph glyph-name="eng" unicode="&#x14b;" horiz-adv-x="621" 
d="M207 500l19 -73c67 59 141 87 207 87c98 0 148 -48 148 -140v-398c0 -108 -57 -171 -157 -171c-41 0 -120 8 -153 26l23 136h36c26 0 41 8 41 27v313c0 22 -10 30 -36 30c-22 0 -46 -1 -82 -11v-326h-210v500h164z" />
    <glyph glyph-name="ntilde" unicode="&#xf1;" horiz-adv-x="621" 
d="M216 563h-87c-22 119 32 173 85 169c68 -5 117 -32 169 -43c30 -6 29 6 29 38h87c21 -112 -23 -173 -85 -169c-68 5 -125 35 -170 43c-30 5 -28 -6 -28 -38zM208 500l19 -74c65 60 139 88 206 88c97 0 148 -48 148 -140v-374h-210v307c0 22 -10 30 -36 30
c-22 0 -45 -1 -82 -12v-325h-210v500h165z" />
    <glyph glyph-name="o" unicode="o" horiz-adv-x="611" 
d="M306 514c204 0 279 -70 279 -265c0 -192 -75 -261 -279 -261c-205 0 -280 69 -280 261c0 195 75 265 280 265zM306 372c-49 0 -60 -20 -60 -123c0 -100 11 -119 60 -119c48 0 59 19 59 119c0 103 -11 123 -59 123z" />
    <glyph glyph-name="oacute" unicode="&#xf3;" horiz-adv-x="611" 
d="M519 635l-255 -103l-57 86l233 150zM306 514c204 0 279 -70 279 -265c0 -192 -75 -261 -279 -261c-205 0 -280 69 -280 261c0 195 75 265 280 265zM306 372c-49 0 -60 -20 -60 -123c0 -100 11 -119 60 -119c48 0 59 19 59 119c0 103 -11 123 -59 123z" />
    <glyph glyph-name="ocircumflex" unicode="&#xf4;" horiz-adv-x="611" 
d="M521 591l-48 -69l-159 93h-8l-162 -93l-50 77l140 133h152zM306 514c204 0 279 -70 279 -265c0 -192 -75 -261 -279 -261c-205 0 -280 69 -280 261c0 195 75 265 280 265zM306 372c-49 0 -60 -20 -60 -123c0 -100 11 -119 60 -119c48 0 59 19 59 119
c0 103 -11 123 -59 123z" />
    <glyph glyph-name="odieresis" unicode="&#xf6;" horiz-adv-x="611" 
d="M178 716h69c26 0 39 -13 39 -39v-63c0 -26 -13 -39 -39 -39h-69c-26 0 -39 13 -39 39v63c0 26 13 39 39 39zM367 716h69c26 0 39 -13 39 -39v-63c0 -26 -13 -39 -39 -39h-69c-26 0 -39 13 -39 39v63c0 26 13 39 39 39zM306 514c204 0 279 -70 279 -265
c0 -192 -75 -261 -279 -261c-205 0 -280 69 -280 261c0 195 75 265 280 265zM306 372c-49 0 -60 -20 -60 -123c0 -100 11 -119 60 -119c48 0 59 19 59 119c0 103 -11 123 -59 123z" />
    <glyph glyph-name="ograve" unicode="&#xf2;" horiz-adv-x="611" 
d="M409 618l-57 -86l-255 103l79 133zM306 514c204 0 279 -70 279 -265c0 -192 -75 -261 -279 -261c-205 0 -280 69 -280 261c0 195 75 265 280 265zM306 372c-49 0 -60 -20 -60 -123c0 -100 11 -119 60 -119c48 0 59 19 59 119c0 103 -11 123 -59 123z" />
    <glyph glyph-name="ohungarumlaut" unicode="&#x151;" horiz-adv-x="611" 
d="M358 696l-169 -176l-83 67l123 193zM573 696l-170 -176l-82 66l123 194zM306 514c204 0 279 -70 279 -265c0 -192 -75 -261 -279 -261c-205 0 -280 69 -280 261c0 195 75 265 280 265zM306 372c-49 0 -60 -20 -60 -123c0 -100 11 -119 60 -119c48 0 59 19 59 119
c0 103 -11 123 -59 123z" />
    <glyph glyph-name="omacron" unicode="&#x14d;" horiz-adv-x="611" 
d="M470 584h-320v123h320v-123zM306 514c204 0 279 -70 279 -265c0 -192 -75 -261 -279 -261c-205 0 -280 69 -280 261c0 195 75 265 280 265zM306 372c-49 0 -60 -20 -60 -123c0 -100 11 -119 60 -119c48 0 59 19 59 119c0 103 -11 123 -59 123z" />
    <glyph glyph-name="oslash" unicode="&#xf8;" horiz-adv-x="611" 
d="M530 541l-33 -67c62 -40 88 -111 88 -225c0 -192 -75 -261 -279 -261c-15 0 -29 0 -42 1l-45 -93l-140 71l31 63c-60 40 -84 109 -84 219c0 195 75 265 280 265l36 -1l48 100zM306 130c48 0 59 19 59 119c0 103 -11 123 -59 123c-49 0 -60 -20 -60 -123
c0 -100 11 -119 60 -119z" />
    <glyph glyph-name="otilde" unicode="&#xf5;" horiz-adv-x="611" 
d="M205 563h-87c-22 119 32 173 85 169c68 -5 117 -32 169 -43c30 -6 29 6 29 38h87c21 -112 -23 -173 -85 -169c-68 5 -125 35 -170 43c-30 5 -28 -6 -28 -38zM306 514c204 0 279 -70 279 -265c0 -192 -75 -261 -279 -261c-205 0 -280 69 -280 261c0 195 75 265 280 265z
M306 372c-49 0 -60 -20 -60 -123c0 -100 11 -119 60 -119c48 0 59 19 59 119c0 103 -11 123 -59 123z" />
    <glyph glyph-name="oe" unicode="&#x153;" horiz-adv-x="909" 
d="M693 202h-120c8 -41 29 -55 84 -55c37 0 113 2 198 11l19 -126c-70 -36 -151 -46 -240 -46c-70 0 -124 11 -166 32c-41 -21 -96 -30 -167 -30c-202 0 -275 69 -275 261c0 195 73 265 275 265c71 0 126 -9 167 -30c41 19 96 28 165 28c185 0 254 -61 255 -178
c1 -93 -46 -132 -195 -132zM570 301h65c45 0 52 4 52 38c0 32 -15 38 -51 38c-49 1 -63 -8 -66 -76zM301 130c44 0 57 15 60 89l-1 25c0 11 0 22 1 32c-2 80 -14 96 -57 96c-48 0 -57 -20 -57 -123c0 -100 9 -119 54 -119z" />
    <glyph glyph-name="p" unicode="p" horiz-adv-x="620" 
d="M211 500l17 -68c31 44 104 80 184 80c130 0 180 -98 180 -268c0 -206 -65 -258 -189 -258c-58 0 -113 12 -153 42c2 -35 4 -74 3 -109v-99h-210v680h168zM253 343v-207c18 -7 37 -13 66 -13c41 0 57 12 57 119c0 108 -16 119 -54 119c-33 0 -49 -8 -69 -18z" />
    <glyph glyph-name="thorn" unicode="&#xfe;" horiz-adv-x="620" 
d="M253 700v-100c1 -47 -3 -100 -6 -143c33 32 84 55 163 55c132 0 182 -98 182 -268c0 -206 -65 -258 -189 -258c-57 0 -112 11 -154 41c3 -35 5 -73 4 -108v-99h-210v880h210zM253 344v-208c18 -7 37 -13 65 -13c42 0 58 12 58 119c0 108 -16 119 -55 119
c-32 0 -49 -8 -68 -17z" />
    <glyph glyph-name="q" unicode="q" horiz-adv-x="618" 
d="M366 -180v130c-1 40 4 84 14 122c-37 -41 -97 -84 -165 -84c-139 0 -188 95 -188 258c0 154 41 268 269 268c73 0 222 -12 280 -42v-652h-210zM366 168v201c-23 3 -50 5 -66 4c-44 -3 -57 -24 -57 -126c0 -77 13 -92 60 -92c26 0 44 6 63 13z" />
    <glyph glyph-name="r" unicode="r" horiz-adv-x="452" 
d="M450 514l-18 -192h-53c-32 0 -68 -2 -126 -10v-312h-210v500h164l19 -73c63 59 131 87 195 87h29z" />
    <glyph glyph-name="racute" unicode="&#x155;" horiz-adv-x="452" 
d="M204 532l-57 86l233 150l79 -133zM207 500l19 -73c63 59 131 87 195 87h29l-18 -192h-53c-32 0 -68 -2 -126 -10v-312h-210v500h164z" />
    <glyph glyph-name="rcaron" unicode="&#x159;" horiz-adv-x="452" 
d="M208 548l-164 131l50 77l151 -76h8l152 76l48 -77l-163 -131h-82zM207 500l19 -73c63 59 131 87 195 87h29l-18 -192h-53c-32 0 -68 -2 -126 -10v-312h-210v500h164z" />
    <glyph glyph-name="rcommaaccent" unicode="&#x157;" horiz-adv-x="452" 
d="M450 514l-18 -192h-53c-32 0 -68 -2 -126 -10v-312h-210v500h164l19 -73c63 59 131 87 195 87h29zM117 -38h38c48 0 64 -13 65 -54v-48c0 -76 -23 -115 -61 -159l-71 19c14 34 17 69 18 103c-38 0 -55 17 -56 48l3 37c1 41 16 54 64 54z" />
    <glyph glyph-name="s" unicode="s" horiz-adv-x="553" 
d="M265 174l-110 30c-110 32 -131 86 -131 164c0 91 56 146 232 146c80 0 193 -9 256 -22l-13 -122h-197c-67 0 -75 1 -75 -12c0 -11 11 -11 59 -24l115 -29c89 -25 132 -64 132 -151c0 -127 -68 -165 -242 -165c-48 0 -150 2 -260 21l13 122h178c95 0 108 0 108 15
c0 12 -13 12 -65 27z" />
    <glyph glyph-name="sacute" unicode="&#x15b;" horiz-adv-x="553" 
d="M491 635l-255 -103l-57 86l233 150zM265 174l-110 30c-110 32 -131 86 -131 164c0 91 56 146 232 146c80 0 193 -9 256 -22l-13 -122h-197c-67 0 -75 1 -75 -12c0 -11 11 -11 59 -24l115 -29c89 -25 132 -64 132 -151c0 -127 -68 -165 -242 -165c-48 0 -150 2 -260 21
l13 122h178c95 0 108 0 108 15c0 12 -13 12 -65 27z" />
    <glyph glyph-name="scaron" unicode="&#x161;" horiz-adv-x="553" 
d="M485 679l-163 -131h-82l-164 131l50 77l151 -76h8l152 76zM265 174l-110 30c-110 32 -131 86 -131 164c0 91 56 146 232 146c80 0 193 -9 256 -22l-13 -122h-197c-67 0 -75 1 -75 -12c0 -11 11 -11 59 -24l115 -29c89 -25 132 -64 132 -151c0 -127 -68 -165 -242 -165
c-48 0 -150 2 -260 21l13 122h178c95 0 108 0 108 15c0 12 -13 12 -65 27z" />
    <glyph glyph-name="scedilla" unicode="&#x15f;" horiz-adv-x="553" 
d="M265 174l-110 30c-110 32 -131 86 -131 164c0 91 56 146 232 146c80 0 193 -9 256 -22l-13 -122h-197c-67 0 -75 1 -75 -12c0 -11 11 -11 59 -24l115 -29c89 -25 132 -64 132 -151c0 -127 -68 -165 -242 -165c-48 0 -150 2 -260 21l13 122h178c95 0 108 0 108 15
c0 12 -13 12 -65 27zM176 -121l19 72c125 14 180 15 176 -65c-5 -115 -109 -164 -234 -147l22 78c44 0 83 4 87 51c2 14 -7 11 -70 11z" />
    <glyph glyph-name="scommaaccent" unicode="&#x219;" horiz-adv-x="553" 
d="M265 174l-110 30c-110 32 -131 86 -131 164c0 91 56 146 232 146c80 0 193 -9 256 -22l-13 -122h-197c-67 0 -75 1 -75 -12c0 -11 11 -11 59 -24l115 -29c89 -25 132 -64 132 -151c0 -127 -68 -165 -242 -165c-48 0 -150 2 -260 21l13 122h178c95 0 108 0 108 15
c0 12 -13 12 -65 27zM246 -38h38c48 0 64 -13 65 -54v-48c0 -76 -23 -115 -61 -159l-71 19c14 34 17 69 18 103c-38 0 -55 17 -56 48l3 37c1 41 16 54 64 54z" />
    <glyph glyph-name="germandbls" unicode="&#xdf;" horiz-adv-x="738" 
d="M598 319l52 -42c62 -54 82 -73 82 -136c0 -96 -44 -152 -206 -152c-57 0 -105 4 -181 11l13 128h117c36 0 44 -1 44 20c0 22 -38 47 -79 83l-30 20c-43 35 -69 67 -69 119c0 44 24 60 61 114c26 38 34 52 34 76c0 34 -11 42 -66 42c-59 0 -70 -10 -70 -61v-541h-210v374
h-82v121l82 5v66c0 131 74 176 278 176c214 0 259 -49 259 -168c0 -40 -7 -61 -46 -113c-20 -26 -42 -54 -42 -75c0 -22 29 -41 59 -67z" />
    <glyph glyph-name="t" unicode="t" horiz-adv-x="438" 
d="M305 374v-192c0 -26 12 -36 43 -36h53l23 -134c-43 -18 -123 -26 -170 -26c-97 0 -159 52 -159 140v248h-85v121l84 4v132h211v-131h121v-126h-121z" />
    <glyph glyph-name="tbar" unicode="&#x167;" horiz-adv-x="438" 
d="M305 374v-50h82v-94h-82v-48c0 -26 12 -36 43 -36h53l23 -134c-43 -18 -123 -26 -170 -26c-97 0 -159 52 -159 140v104h-56v94h56v50h-85v121l84 4v132h211v-131h121v-126h-121z" />
    <glyph glyph-name="tcaron" unicode="&#x165;" horiz-adv-x="438" 
d="M367 811h38c48 0 64 -13 65 -54v-48c0 -76 -23 -115 -61 -159l-71 19c14 34 17 69 18 103c-38 0 -55 17 -56 48l3 37c1 41 16 54 64 54zM305 500h121v-126h-121v-192c0 -26 12 -36 43 -36h53l23 -134c-43 -18 -123 -26 -170 -26c-97 0 -159 52 -159 140v248h-85v121l84 4
v132h211v-131z" />
    <glyph glyph-name="tcedilla" unicode="&#x163;" horiz-adv-x="438" 
d="M305 374v-192c0 -26 12 -36 43 -36h53l23 -134c-43 -18 -123 -26 -170 -26c-97 0 -159 52 -159 140v248h-85v121l84 4v132h211v-131h121v-126h-121zM153 -124l19 72c125 14 180 15 176 -65c-5 -115 -109 -164 -234 -147l22 78c44 0 83 4 87 51c2 14 -7 11 -70 11z" />
    <glyph glyph-name="uni021B" unicode="&#x21b;" horiz-adv-x="438" 
d="M305 374v-192c0 -26 12 -36 43 -36h53l23 -134c-43 -18 -123 -26 -170 -26c-97 0 -159 52 -159 140v248h-85v121l84 4v132h211v-131h121v-126h-121zM221 -48h38c48 0 64 -13 65 -54v-48c0 -76 -23 -115 -61 -159l-71 19c14 34 17 69 18 103c-38 0 -55 17 -56 48l3 37
c1 41 16 54 64 54z" />
    <glyph glyph-name="u" unicode="u" horiz-adv-x="615" 
d="M572 500v-500h-165l-19 73c-65 -59 -127 -87 -200 -87c-98 0 -148 48 -148 140v374h210v-307c0 -22 11 -31 37 -31c22 0 42 2 74 12v326h211z" />
    <glyph glyph-name="uacute" unicode="&#xfa;" horiz-adv-x="615" 
d="M264 543l-57 86l233 150l79 -133zM572 500v-500h-165l-19 73c-65 -59 -127 -87 -200 -87c-98 0 -148 48 -148 140v374h210v-307c0 -22 11 -31 37 -31c22 0 42 2 74 12v326h211z" />
    <glyph glyph-name="ucircumflex" unicode="&#xfb;" horiz-adv-x="615" 
d="M144 533l-50 77l140 133h152l135 -141l-48 -69l-159 93h-8zM572 500v-500h-165l-19 73c-65 -59 -127 -87 -200 -87c-98 0 -148 48 -148 140v374h210v-307c0 -22 11 -31 37 -31c22 0 42 2 74 12v326h211z" />
    <glyph glyph-name="udieresis" unicode="&#xfc;" horiz-adv-x="615" 
d="M247 586h-69c-26 0 -39 13 -39 39v63c0 26 13 39 39 39h69c26 0 39 -13 39 -39v-63c0 -26 -13 -39 -39 -39zM436 586h-69c-26 0 -39 13 -39 39v63c0 26 13 39 39 39h69c26 0 39 -13 39 -39v-63c0 -26 -13 -39 -39 -39zM572 500v-500h-165l-19 73
c-65 -59 -127 -87 -200 -87c-98 0 -148 48 -148 140v374h210v-307c0 -22 11 -31 37 -31c22 0 42 2 74 12v326h211z" />
    <glyph glyph-name="ugrave" unicode="&#xf9;" horiz-adv-x="615" 
d="M352 543l-255 103l79 133l233 -150zM572 500v-500h-165l-19 73c-65 -59 -127 -87 -200 -87c-98 0 -148 48 -148 140v374h210v-307c0 -22 11 -31 37 -31c22 0 42 2 74 12v326h211z" />
    <glyph glyph-name="uhungarumlaut" unicode="&#x171;" horiz-adv-x="615" 
d="M189 531l-83 67l123 193l129 -84zM321 597l123 194l129 -84l-170 -176zM361 500h211v-500h-165l-19 73c-65 -59 -127 -87 -200 -87c-98 0 -148 48 -148 140v374h210v-307c0 -22 11 -31 37 -31c22 0 42 2 74 12v326z" />
    <glyph glyph-name="umacron" unicode="&#x16b;" horiz-adv-x="615" 
d="M470 595h-320v123h320v-123zM572 500v-500h-165l-19 73c-65 -59 -127 -87 -200 -87c-98 0 -148 48 -148 140v374h210v-307c0 -22 11 -31 37 -31c22 0 42 2 74 12v326h211z" />
    <glyph glyph-name="uogonek" unicode="&#x173;" horiz-adv-x="615" 
d="M573 -120l12 -72c-162 -61 -222 14 -198 87c10 31 42 70 102 105h-82l-19 73c-65 -59 -127 -87 -200 -87c-98 0 -148 48 -148 140v374h210v-307c0 -22 11 -31 37 -31c22 0 42 2 74 12v326h211v-500c-16 -29 -31 -54 -47 -87c-17 -36 11 -39 48 -33z" />
    <glyph glyph-name="uring" unicode="&#x16f;" horiz-adv-x="615" 
d="M309 536c-70 0 -129 55 -129 125c0 69 59 125 129 125s129 -56 129 -125c0 -70 -59 -125 -129 -125zM309 706c-24 0 -44 -21 -44 -45c0 -25 20 -45 44 -45s44 20 44 45c0 24 -20 45 -44 45zM572 500v-500h-165l-19 73c-65 -59 -127 -87 -200 -87c-98 0 -148 48 -148 140
v374h210v-307c0 -22 11 -31 37 -31c22 0 42 2 74 12v326h211z" />
    <glyph glyph-name="v" unicode="v" horiz-adv-x="601" 
d="M604 500l-148 -451c-9 -30 -34 -49 -66 -49h-179c-32 0 -57 19 -66 49l-148 451h222l61 -276c6 -31 10 -63 14 -94h13c4 31 10 63 15 94l60 276h222z" />
    <glyph glyph-name="w" unicode="w" horiz-adv-x="876" 
d="M868 500l-102 -447c-7 -32 -34 -53 -68 -53h-147c-37 0 -68 25 -72 62l-29 227c-3 30 -4 58 -6 88h-13c-2 -30 -4 -58 -7 -88l-29 -227c-4 -37 -35 -62 -72 -62h-145c-34 0 -61 21 -68 53l-102 447h208l36 -281c3 -30 6 -59 8 -89h12c2 30 6 59 9 89l28 220
c4 36 34 61 71 61h115c37 0 67 -25 71 -62l27 -219c3 -30 8 -59 10 -89h12c3 30 5 59 9 89l35 281h209z" />
    <glyph glyph-name="wacute" unicode="&#x1e83;" horiz-adv-x="876" 
d="M650 635l-255 -103l-57 86l233 150zM868 500l-102 -447c-7 -32 -34 -53 -68 -53h-147c-37 0 -68 25 -72 62l-29 227c-3 30 -4 58 -6 88h-13c-2 -30 -4 -58 -7 -88l-29 -227c-4 -37 -35 -62 -72 -62h-145c-34 0 -61 21 -68 53l-102 447h208l36 -281c3 -30 6 -59 8 -89h12
c2 30 6 59 9 89l28 220c4 36 34 61 71 61h115c37 0 67 -25 71 -62l27 -219c3 -30 8 -59 10 -89h12c3 30 5 59 9 89l35 281h209z" />
    <glyph glyph-name="wcircumflex" unicode="&#x175;" horiz-adv-x="876" 
d="M652 591l-48 -69l-159 93h-8l-162 -93l-50 77l140 133h152zM868 500l-102 -447c-7 -32 -34 -53 -68 -53h-147c-37 0 -68 25 -72 62l-29 227c-3 30 -4 58 -6 88h-13c-2 -30 -4 -58 -7 -88l-29 -227c-4 -37 -35 -62 -72 -62h-145c-34 0 -61 21 -68 53l-102 447h208l36 -281
c3 -30 6 -59 8 -89h12c2 30 6 59 9 89l28 220c4 36 34 61 71 61h115c37 0 67 -25 71 -62l27 -219c3 -30 8 -59 10 -89h12c3 30 5 59 9 89l35 281h209z" />
    <glyph glyph-name="wdieresis" unicode="&#x1e85;" horiz-adv-x="876" 
d="M309 716h69c26 0 39 -13 39 -39v-63c0 -26 -13 -39 -39 -39h-69c-26 0 -39 13 -39 39v63c0 26 13 39 39 39zM498 716h69c26 0 39 -13 39 -39v-63c0 -26 -13 -39 -39 -39h-69c-26 0 -39 13 -39 39v63c0 26 13 39 39 39zM868 500l-102 -447c-7 -32 -34 -53 -68 -53h-147
c-37 0 -68 25 -72 62l-29 227c-3 30 -4 58 -6 88h-13c-2 -30 -4 -58 -7 -88l-29 -227c-4 -37 -35 -62 -72 -62h-145c-34 0 -61 21 -68 53l-102 447h208l36 -281c3 -30 6 -59 8 -89h12c2 30 6 59 9 89l28 220c4 36 34 61 71 61h115c37 0 67 -25 71 -62l27 -219
c3 -30 8 -59 10 -89h12c3 30 5 59 9 89l35 281h209z" />
    <glyph glyph-name="wgrave" unicode="&#x1e81;" horiz-adv-x="876" 
d="M540 618l-57 -86l-255 103l79 133zM868 500l-102 -447c-7 -32 -34 -53 -68 -53h-147c-37 0 -68 25 -72 62l-29 227c-3 30 -4 58 -6 88h-13c-2 -30 -4 -58 -7 -88l-29 -227c-4 -37 -35 -62 -72 -62h-145c-34 0 -61 21 -68 53l-102 447h208l36 -281c3 -30 6 -59 8 -89h12
c2 30 6 59 9 89l28 220c4 36 34 61 71 61h115c37 0 67 -25 71 -62l27 -219c3 -30 8 -59 10 -89h12c3 30 5 59 9 89l35 281h209z" />
    <glyph glyph-name="x" unicode="x" horiz-adv-x="606" 
d="M401 0l-98 188l-98 -188h-208l145 255l-134 245h207l88 -175l88 175h207l-134 -245l145 -255h-208z" />
    <glyph glyph-name="y" unicode="y" horiz-adv-x="602" 
d="M604 500l-159 -486c-34 -110 -126 -255 -333 -211l-14 113c76 16 120 38 147 84h-34c-32 0 -57 19 -66 49l-148 451h223l59 -276c5 -31 9 -63 13 -94h9c9 31 16 69 21 94l59 276h223z" />
    <glyph glyph-name="yacute" unicode="&#xfd;" horiz-adv-x="602" 
d="M260 532l-57 86l233 150l79 -133zM604 500l-159 -486c-34 -110 -126 -255 -333 -211l-14 113c76 16 120 38 147 84h-34c-32 0 -57 19 -66 49l-148 451h223l59 -276c5 -31 9 -63 13 -94h9c9 31 16 69 21 94l59 276h223z" />
    <glyph glyph-name="ycircumflex" unicode="&#x177;" horiz-adv-x="602" 
d="M140 522l-50 77l140 133h152l135 -141l-48 -69l-159 93h-8zM604 500l-159 -486c-34 -110 -126 -255 -333 -211l-14 113c76 16 120 38 147 84h-34c-32 0 -57 19 -66 49l-148 451h223l59 -276c5 -31 9 -63 13 -94h9c9 31 16 69 21 94l59 276h223z" />
    <glyph glyph-name="ydieresis" unicode="&#xff;" horiz-adv-x="602" 
d="M243 575h-69c-26 0 -39 13 -39 39v63c0 26 13 39 39 39h69c26 0 39 -13 39 -39v-63c0 -26 -13 -39 -39 -39zM432 575h-69c-26 0 -39 13 -39 39v63c0 26 13 39 39 39h69c26 0 39 -13 39 -39v-63c0 -26 -13 -39 -39 -39zM604 500l-159 -486c-34 -110 -126 -255 -333 -211
l-14 113c76 16 120 38 147 84h-34c-32 0 -57 19 -66 49l-148 451h223l59 -276c5 -31 9 -63 13 -94h9c9 31 16 69 21 94l59 276h223z" />
    <glyph glyph-name="ygrave" unicode="&#x1ef3;" horiz-adv-x="602" 
d="M348 532l-255 103l79 133l233 -150zM604 500l-159 -486c-34 -110 -126 -255 -333 -211l-14 113c76 16 120 38 147 84h-34c-32 0 -57 19 -66 49l-148 451h223l59 -276c5 -31 9 -63 13 -94h9c9 31 16 69 21 94l59 276h223z" />
    <glyph glyph-name="z" unicode="z" horiz-adv-x="541" 
d="M512 135v-135h-483v135l232 230h-226v135h471v-135l-232 -230h238z" />
    <glyph glyph-name="zacute" unicode="&#x17a;" horiz-adv-x="541" 
d="M231 532l-57 86l233 150l79 -133zM512 135v-135h-483v135l232 230h-226v135h471v-135l-232 -230h238z" />
    <glyph glyph-name="zcaron" unicode="&#x17e;" horiz-adv-x="541" 
d="M235 548l-164 131l50 77l151 -76h8l152 76l48 -77l-163 -131h-82zM512 135v-135h-483v135l232 230h-226v135h471v-135l-232 -230h238z" />
    <glyph glyph-name="zdotaccent" unicode="&#x17c;" horiz-adv-x="541" 
d="M308 564h-63c-40 0 -59 19 -59 57v47c0 39 19 57 59 57h63c40 0 59 -18 59 -57v-47c0 -38 -19 -57 -59 -57zM512 135v-135h-483v135l232 230h-226v135h471v-135l-232 -230h238z" />
    <glyph glyph-name="c_t" horiz-adv-x="882" 
d="M749 374v-192c0 -26 12 -36 43 -36h53l23 -134c-43 -18 -123 -26 -170 -26c-97 0 -159 52 -159 140v248h-209c-64 0 -84 -25 -84 -123c0 -78 20 -97 84 -97c28 0 80 0 131 7l19 -131c-50 -31 -122 -42 -188 -42c-196 0 -266 70 -266 263c0 182 71 249 268 249h244v131
h211v-131h121v-126h-121z" />
    <glyph glyph-name="f_f_y" horiz-adv-x="1344" 
d="M1346 500l-159 -486c-34 -110 -126 -255 -333 -211l-14 113c76 16 120 38 147 84h-34c-32 0 -57 19 -66 49l-96 292c-7 22 -22 33 -45 33h-73v-374h-204v374h-174v-374h-203v374h-84v121l84 5v51c3 94 47 163 181 163c36 0 119 -4 163 -14l-20 -126h-73
c-37 0 -48 -13 -48 -52v-22h174v61c0 94 47 163 184 163c40 0 126 -4 176 -14l-20 -126h-88c-37 0 -48 -13 -48 -52v-32h153c91 0 145 -44 164 -133l31 -143c5 -31 9 -63 13 -94h9c9 31 16 69 21 94l59 276h223z" />
    <glyph glyph-name="f_t" horiz-adv-x="810" 
d="M677 374v-192c0 -26 12 -36 43 -36h53l23 -134c-43 -18 -123 -26 -170 -26c-97 0 -159 52 -159 140v248h-164v-374h-211v374h-84v121l84 5v61c0 94 47 163 184 163c34 0 112 -4 153 -14l-20 -126h-58c-37 0 -48 -13 -48 -52v-32h163v131h211v-131h121v-126h-121z" />
    <glyph glyph-name="f_y" horiz-adv-x="967" 
d="M969 500l-159 -486c-34 -110 -126 -255 -333 -211l-14 113c76 16 120 38 147 84h-34c-32 0 -57 19 -66 49l-96 292c-7 22 -22 33 -45 33h-66v-374h-211v374h-84v121l84 5v61c0 94 47 163 184 163c40 0 133 -4 183 -14l-20 -126h-88c-37 0 -48 -13 -48 -52v-32h146
c91 0 145 -44 164 -133l31 -143c5 -31 9 -63 13 -94h9c9 31 16 69 21 94l59 276h223z" />
    <glyph glyph-name="s_t" horiz-adv-x="925" 
d="M792 374v-192c0 -26 12 -36 43 -36h53l23 -134c-43 -18 -123 -26 -170 -26c-97 0 -159 52 -159 140v247h-280c-67 0 -75 1 -75 -12c0 -11 11 -11 59 -24l115 -32c82 -25 122 -64 122 -151c0 -127 -65 -165 -232 -165c-48 0 -150 2 -260 21l13 122h178c76 0 98 0 98 15
c0 13 -17 17 -55 27l-110 30c-110 32 -131 86 -131 164c0 81 56 132 232 132h325v131h211v-131h121v-126h-121z" />
    <glyph glyph-name="t_t" horiz-adv-x="825" 
d="M692 374v-192c0 -26 12 -36 43 -36h53l23 -134c-43 -18 -123 -26 -170 -26c-97 0 -159 52 -159 140v248h-177v-192c0 -26 12 -36 43 -36h53l23 -134c-43 -18 -123 -26 -170 -26c-97 0 -159 52 -159 140v248h-85v121l84 4v132h211v-131h176v131h211v-131h121v-126h-121z
" />
    <glyph glyph-name="t_y" horiz-adv-x="992" 
d="M994 500l-159 -486c-34 -110 -126 -255 -333 -211l-14 113c76 16 120 38 147 84h-34c-32 0 -57 19 -66 49l-96 292c-7 22 -22 33 -45 33h-89v-192c0 -26 12 -36 43 -36h53l23 -134c-43 -18 -123 -26 -170 -26c-97 0 -159 52 -159 140v248h-85v121l84 4v132h211v-131h169
c91 0 145 -44 164 -133l31 -143c5 -31 9 -63 13 -94h9c9 31 16 69 21 94l59 276h223z" />
    <glyph glyph-name="ordfeminine" unicode="&#xaa;" horiz-adv-x="433" 
d="M63 510l-14 96c50 9 143 17 194 17c97 0 150 -33 150 -141v-205h-121l-12 44c-22 -28 -58 -54 -114 -54c-62 0 -116 33 -116 96v33c0 54 43 88 112 88h100c0 21 -10 29 -35 29c-35 0 -88 0 -144 -3zM176 394v-8c0 -10 8 -17 25 -17c13 0 27 5 41 12v35l-42 -4
c-16 -2 -24 -8 -24 -18z" />
    <glyph glyph-name="ordmasculine" unicode="&#xba;" horiz-adv-x="435" 
d="M218 623c140 0 190 -48 190 -179c0 -129 -50 -175 -190 -175s-191 46 -191 175c0 131 51 179 191 179zM218 521c-28 0 -33 -11 -33 -77c0 -63 5 -74 33 -74c27 0 32 11 32 74c0 66 -5 77 -32 77z" />
    <glyph glyph-name="uni0410" unicode="&#x410;" horiz-adv-x="683" 
d="M436 149h-189l-35 -149h-221l179 634c9 34 38 56 73 56h197c35 0 64 -22 73 -56l179 -634h-221zM401 301l-34 148c-5 25 -10 54 -12 79h-27c-3 -25 -7 -54 -12 -79l-34 -148h119z" />
    <glyph glyph-name="uni0411" unicode="&#x411;" horiz-adv-x="648" 
d="M273 423h69c214 0 286 -48 286 -213c0 -169 -81 -218 -257 -218c-131 0 -215 1 -309 8h-6v690c88 6 178 8 257 8c95 0 180 -3 266 -8l-16 -155h-290v-112zM273 142h69c58 0 69 14 69 75s-11 75 -69 75h-69v-150z" />
    <glyph glyph-name="uni0412" unicode="&#x412;" horiz-adv-x="664" 
d="M488 361v-6c110 -9 149 -73 149 -183c0 -142 -77 -180 -250 -180c-149 0 -233 1 -331 8v690c89 7 166 8 298 8c192 0 260 -38 260 -180c0 -99 -35 -149 -126 -157zM268 421h77c50 0 62 12 62 66c0 53 -12 64 -64 64h-75v-130zM268 139h80c60 0 73 14 73 77
c0 64 -13 78 -74 78h-79v-155z" />
    <glyph glyph-name="uni0413" unicode="&#x413;" horiz-adv-x="554" 
d="M54 0v537c0 93 67 157 161 157c113 0 241 0 335 -14l-10 -152h-227c-26 0 -42 -15 -42 -36v-492h-217z" />
    <glyph glyph-name="uni0403" unicode="&#x403;" horiz-adv-x="554" 
d="M514 823l-255 -103l-57 86l233 150zM54 0v537c0 93 67 157 161 157c113 0 241 0 335 -14l-10 -152h-227c-26 0 -42 -15 -42 -36v-492h-217z" />
    <glyph glyph-name="uni0490" unicode="&#x490;" horiz-adv-x="555" 
d="M551 843v-163l-10 -152h-228c-26 0 -42 -15 -42 -36v-492h-217v537c0 93 67 157 161 157c56 0 118 0 177 -2l15 151h144z" />
    <glyph glyph-name="uni0414" unicode="&#x414;" horiz-adv-x="783" 
d="M771 142v-293h-157l-15 151h-416l-15 -151h-157v293h76c46 131 70 262 84 395c9 88 75 153 171 153h334v-548h95zM459 142v406h-41c-28 0 -43 -16 -46 -48c-19 -178 -39 -272 -81 -358h168z" />
    <glyph glyph-name="uni0415" unicode="&#x415;" horiz-adv-x="598" 
d="M560 162l10 -153c-100 -13 -240 -13 -359 -13c-95 0 -162 64 -162 157v384c0 93 67 157 162 157c119 0 259 0 359 -13l-10 -153h-253c-25 0 -41 -15 -41 -36v-67h258v-144h-258v-83c0 -21 16 -36 41 -36h253z" />
    <glyph glyph-name="uni0401" unicode="&#x401;" horiz-adv-x="598" 
d="M263 763h-69c-26 0 -39 13 -39 39v63c0 26 13 39 39 39h69c26 0 39 -13 39 -39v-63c0 -26 -13 -39 -39 -39zM452 763h-69c-26 0 -39 13 -39 39v63c0 26 13 39 39 39h69c26 0 39 -13 39 -39v-63c0 -26 -13 -39 -39 -39zM560 162l10 -153c-100 -13 -240 -13 -359 -13
c-95 0 -162 64 -162 157v384c0 93 67 157 162 157c119 0 259 0 359 -13l-10 -153h-253c-25 0 -41 -15 -41 -36v-67h258v-144h-258v-83c0 -21 16 -36 41 -36h253z" />
    <glyph glyph-name="uni0416" unicode="&#x416;" horiz-adv-x="968" 
d="M735 363v-6c142 -22 143 -55 226 -357h-227c-77 264 -76 288 -132 288h-23c5 -22 8 -44 8 -63v-225h-207v225c0 19 4 41 9 63h-24c-53 0 -53 -24 -131 -288h-227c83 302 84 335 226 357v6c-138 20 -130 61 -206 327h220c61 -219 65 -262 119 -262h25c-7 29 -10 60 -10 88
v174h206v-174c0 -28 -3 -59 -9 -88h22c55 0 59 43 121 262h220c-76 -266 -68 -307 -206 -327z" />
    <glyph glyph-name="uni0417" unicode="&#x417;" horiz-adv-x="586" 
d="M47 527l-16 148c73 17 142 23 252 23c186 0 251 -38 251 -180c0 -99 -33 -149 -120 -157v-6c105 -9 142 -73 142 -183c0 -142 -74 -180 -241 -180c-130 0 -209 10 -295 38l16 141c100 -16 175 -23 236 -23c50 0 62 14 62 68c0 57 -12 70 -63 71l-152 3v135l150 3
c41 1 51 12 51 59c0 44 -10 55 -52 55c-74 0 -134 -5 -221 -15z" />
    <glyph glyph-name="uni0418" unicode="&#x418;" horiz-adv-x="734" 
d="M677 0h-206v317c0 36 5 71 11 107h-7c-11 -37 -24 -72 -42 -106l-169 -318h-207v690h206v-306c0 -34 -5 -74 -11 -112h7c12 37 27 74 44 106l168 312h206v-690z" />
    <glyph glyph-name="uni0419" unicode="&#x419;" horiz-adv-x="734" 
d="M427 910h127c16 -86 -55 -173 -178 -173s-195 87 -179 173h127c-8 -62 13 -77 52 -77c38 0 59 15 51 77zM677 0h-206v317c0 36 5 71 11 107h-7c-11 -37 -24 -72 -42 -106l-169 -318h-207v690h206v-306c0 -34 -5 -74 -11 -112h7c12 37 27 74 44 106l168 312h206v-690z" />
    <glyph glyph-name="uni040D" unicode="&#x40d;" horiz-adv-x="734" 
d="M476 806l-57 -86l-255 103l79 133zM677 0h-206v317c0 36 5 71 11 107h-7c-11 -37 -24 -72 -42 -106l-169 -318h-207v690h206v-306c0 -34 -5 -74 -11 -112h7c12 37 27 74 44 106l168 312h206v-690z" />
    <glyph glyph-name="uni041A" unicode="&#x41a;" horiz-adv-x="681" 
d="M441 363v-6c146 -22 149 -55 235 -357h-226c-71 264 -72 288 -161 288h-23c5 -22 8 -44 8 -63v-225h-217v690h217v-174c0 -28 -3 -59 -10 -88h22c91 0 97 43 150 262h220c-79 -266 -73 -307 -215 -327z" />
    <glyph glyph-name="uni040C" unicode="&#x40c;" horiz-adv-x="681" 
d="M310 720l-57 86l233 150l79 -133zM441 363v-6c146 -22 149 -55 235 -357h-226c-71 264 -72 288 -161 288h-23c5 -22 8 -44 8 -63v-225h-217v690h217v-174c0 -28 -3 -59 -10 -88h22c91 0 97 43 150 262h220c-79 -266 -73 -307 -215 -327z" />
    <glyph glyph-name="uni041B" unicode="&#x41b;" horiz-adv-x="710" 
d="M653 690v-690h-217v548h-42c-33 0 -51 -16 -53 -46c-9 -117 -24 -258 -48 -338c-47 -160 -149 -193 -282 -169l-15 168c47 5 82 11 98 59c20 58 33 162 42 295c7 114 69 173 182 173h335z" />
    <glyph glyph-name="uni041C" unicode="&#x41c;" horiz-adv-x="960" 
d="M625 690h191c50 0 74 -26 76 -75l24 -615h-195l-21 528h-15l-68 -352c-7 -44 -36 -66 -82 -66h-112c-46 0 -75 22 -83 66l-69 352h-15l-17 -528h-195l24 615c2 49 26 75 76 75h187c45 0 74 -22 82 -67l50 -274c5 -34 8 -69 11 -103h9c4 34 7 69 12 103l47 274
c8 45 37 67 83 67z" />
    <glyph glyph-name="uni041D" unicode="&#x41d;" horiz-adv-x="722" 
d="M665 690v-690h-217v290h-174v-290h-217v690h217v-248h174v248h217z" />
    <glyph glyph-name="uni041E" unicode="&#x41e;" horiz-adv-x="707" 
d="M353 704c237 0 322 -75 322 -359s-85 -359 -322 -359c-236 0 -321 75 -321 359s85 359 321 359zM353 543c-74 0 -93 -38 -93 -198s19 -198 93 -198s93 38 93 198s-19 198 -93 198z" />
    <glyph glyph-name="uni041F" unicode="&#x41f;" horiz-adv-x="718" 
d="M661 690v-690h-217v548h-170v-548h-217v690h604z" />
    <glyph glyph-name="uni0420" unicode="&#x420;" horiz-adv-x="650" 
d="M56 0v690c92 9 154 10 292 10c219 0 286 -51 286 -235c0 -182 -67 -233 -256 -233c-35 0 -71 2 -105 6v-238h-217zM273 385h70c59 0 74 16 74 80c0 66 -15 82 -74 82h-70v-162z" />
    <glyph glyph-name="uni0421" unicode="&#x421;" horiz-adv-x="605" 
d="M571 179l16 -158c-70 -24 -134 -33 -242 -33c-229 0 -313 94 -313 357s84 357 313 357c108 0 158 -8 227 -27l-16 -158c-70 1 -116 2 -211 2c-68 0 -85 -34 -85 -174s17 -174 85 -174c100 0 159 1 226 8z" />
    <glyph glyph-name="uni0422" unicode="&#x422;" horiz-adv-x="623" 
d="M613 528h-193v-528h-217v528h-193v162h603v-162z" />
    <glyph glyph-name="uni0423" unicode="&#x423;" horiz-adv-x="623" 
d="M630 690l-150 -503c-38 -131 -79 -190 -190 -201c-60 -6 -162 6 -213 14l23 148c107 -2 150 -8 162 28l4 16h-41c-64 0 -92 38 -108 94l-124 404h222l78 -335c1 -7 8 -11 16 -11h9l90 346h222z" />
    <glyph glyph-name="uni040E" unicode="&#x40e;" horiz-adv-x="623" 
d="M397 922l97 -13c16 -89 -55 -172 -178 -172s-195 83 -179 172l97 13c0 -42 22 -59 82 -59c59 0 81 17 81 59zM630 690l-150 -503c-38 -131 -79 -190 -190 -201c-60 -6 -162 6 -213 14l23 148c107 -2 150 -8 162 28l4 16h-41c-64 0 -92 38 -108 94l-124 404h222l78 -335
c1 -7 8 -11 16 -11h9l90 346h222z" />
    <glyph glyph-name="uni0424" unicode="&#x424;" horiz-adv-x="877" 
d="M547 734v-83c231 -16 314 -92 314 -296c0 -197 -83 -270 -314 -286v-83h-217v83c-231 15 -314 89 -314 286c0 204 83 280 314 296v83h217zM340 221v278c-91 -10 -107 -44 -107 -144c0 -93 16 -125 107 -134zM537 499v-278c90 9 107 41 107 134c0 100 -17 134 -107 144z
" />
    <glyph glyph-name="uni0425" unicode="&#x425;" horiz-adv-x="677" 
d="M467 0l-128 290l-129 -290h-215l171 352l-157 338h214l116 -273l115 273h214l-157 -338l171 -352h-215z" />
    <glyph glyph-name="uni0427" unicode="&#x427;" horiz-adv-x="694" 
d="M637 690v-690h-217v262c-65 -30 -138 -46 -189 -46c-135 0 -196 56 -196 180v294h217v-247c-3 -40 10 -50 59 -50c29 0 61 0 109 14v283h217z" />
    <glyph glyph-name="uni0426" unicode="&#x426;" horiz-adv-x="734" 
d="M721 142v-293h-157l-15 151h-492v690h217v-548h154v548h217v-548h76z" />
    <glyph glyph-name="uni0428" unicode="&#x428;" horiz-adv-x="1019" 
d="M962 690v-690h-905v690h212v-548h135v548h211v-548h135v548h212z" />
    <glyph glyph-name="uni0429" unicode="&#x429;" horiz-adv-x="1048" 
d="M1034 142v-293h-157l-15 151h-805v690h212v-548h133v548h212v-548h133v548h212v-548h75z" />
    <glyph glyph-name="uni040F" unicode="&#x40f;" horiz-adv-x="721" 
d="M664 690v-690h-218l-8 -151h-148l-8 151h-225v690h217v-548h173v548h217z" />
    <glyph glyph-name="uni042F" unicode="&#x42f;" horiz-adv-x="664" 
d="M175 320v6c-104 11 -134 81 -134 164c0 161 86 210 283 210c134 0 195 -1 284 -10v-690h-217v252h-54c-35 0 -47 -9 -54 -47l-43 -205h-227l52 212c16 84 74 103 110 108zM391 405v142h-62c-57 0 -70 -14 -70 -71s13 -71 70 -71h62z" />
    <glyph glyph-name="uni042C" unicode="&#x42c;" horiz-adv-x="634" 
d="M274 453h61c210 0 279 -52 279 -230c0 -180 -74 -231 -240 -231c-141 0 -219 1 -311 8h-6v690h217v-237zM274 142h61c52 0 62 16 62 89s-10 91 -62 91h-61v-180z" />
    <glyph glyph-name="uni042A" unicode="&#x42a;" horiz-adv-x="786" 
d="M436 453h55c207 0 275 -52 275 -230c0 -180 -73 -231 -236 -231c-138 0 -215 1 -306 8h-6v528h-209v162h427v-237zM436 142h55c48 0 57 16 57 89s-9 91 -57 91h-55v-180z" />
    <glyph glyph-name="uni042B" unicode="&#x42b;" horiz-adv-x="955" 
d="M275 453h56c208 0 276 -52 276 -230c0 -180 -73 -231 -237 -231c-138 0 -216 1 -307 8h-6v690h218v-237zM898 690v-690h-218v690h218zM275 142h56c49 0 58 16 58 89s-9 91 -58 91h-56v-180z" />
    <glyph glyph-name="uni0409" unicode="&#x409;" horiz-adv-x="983" 
d="M645 453h44c206 0 274 -52 274 -229c0 -181 -71 -232 -236 -232c-136 0 -200 1 -290 8h-6v548h-35c-28 0 -44 -16 -47 -46c-12 -136 -22 -251 -47 -338c-45 -156 -137 -194 -277 -169l-15 148c44 8 75 17 96 79c20 58 29 169 39 305c8 111 68 163 170 163h330v-237z
M645 142h44c47 0 56 16 56 89s-9 91 -56 91h-44v-180z" />
    <glyph glyph-name="uni040A" unicode="&#x40a;" horiz-adv-x="974" 
d="M638 436h54c197 0 263 -50 263 -213c0 -180 -70 -231 -224 -231c-137 0 -211 1 -301 8h-6v295h-149v-295h-218v690h218v-253h149v253h214v-254zM638 142h54c38 0 45 16 45 83c0 64 -7 80 -45 80h-54v-163z" />
    <glyph glyph-name="uni0405" unicode="&#x405;" horiz-adv-x="610" 
d="M321 233l-137 60c-112 50 -154 107 -154 208c0 157 76 203 284 203c72 0 168 -6 251 -35l-13 -139c-60 1 -157 2 -243 2c-50 0 -64 -5 -64 -26c0 -19 13 -29 60 -47l125 -52c115 -50 155 -109 155 -210c0 -155 -67 -211 -282 -211c-47 0 -147 3 -267 34l13 152
c119 -3 214 -5 251 -5c55 0 68 5 68 24s-10 28 -47 42z" />
    <glyph glyph-name="uni0404" unicode="&#x404;" horiz-adv-x="607" 
d="M568 179l16 -158c-68 -24 -130 -33 -235 -33c-232 0 -317 94 -317 357s85 357 317 357c108 0 161 -8 230 -27l-16 -158c-71 1 -119 2 -214 2c-60 0 -84 -21 -91 -99h269v-134h-270c5 -91 28 -115 92 -115c96 0 154 1 219 8z" />
    <glyph glyph-name="uni042D" unicode="&#x42d;" horiz-adv-x="607" 
d="M44 517l-16 158c69 19 122 27 230 27c232 0 317 -94 317 -357s-85 -357 -317 -357c-105 0 -167 9 -235 33l16 158c65 -7 123 -8 219 -8c64 0 87 24 92 115h-270v134h269c-7 78 -31 99 -91 99c-95 0 -143 -1 -214 -2z" />
    <glyph glyph-name="uni0406" unicode="&#x406;" horiz-adv-x="329" 
d="M272 0h-215v690h215v-690z" />
    <glyph glyph-name="uni0407" unicode="&#x407;" horiz-adv-x="329" 
d="M34 904h69c26 0 39 -13 39 -39v-63c0 -26 -13 -39 -39 -39h-69c-26 0 -39 13 -39 39v63c0 26 13 39 39 39zM223 904h69c26 0 39 -13 39 -39v-63c0 -26 -13 -39 -39 -39h-69c-26 0 -39 13 -39 39v63c0 26 13 39 39 39zM272 0h-215v690h215v-690z" />
    <glyph glyph-name="uni0408" unicode="&#x408;" horiz-adv-x="408" 
d="M354 690v-563c0 -90 -70 -141 -183 -141c-44 0 -127 8 -161 26l23 136h47c40 0 59 10 59 35v507h215z" />
    <glyph glyph-name="uni040B" unicode="&#x40b;" horiz-adv-x="810" 
d="M417 528v-95c63 20 139 31 172 31c133 0 193 -56 193 -180v-284h-218v237c0 40 -8 50 -56 50h-91v-287h-217v528h-190v162h597v-162h-190z" />
    <glyph glyph-name="uni042E" unicode="&#x42e;" horiz-adv-x="1021" 
d="M275 427h101c15 217 98 277 294 277c235 0 319 -75 319 -359s-84 -359 -319 -359c-203 0 -285 64 -296 299h-99v-285h-218v690h218v-263zM670 147c72 0 89 38 89 198s-17 198 -89 198c-70 0 -85 -38 -85 -198s15 -198 85 -198z" />
    <glyph glyph-name="uni0402" unicode="&#x402;" horiz-adv-x="777" 
d="M417 528v-113c58 26 129 39 167 39c127 0 178 -50 178 -214c0 -202 -121 -257 -277 -256l-20 150c64 16 79 44 79 97c0 51 -8 56 -47 56c-20 0 -49 -2 -80 -11v-276h-217v528h-190v162h597v-162h-190z" />
    <glyph glyph-name="uni04B0" unicode="&#x4b0;" horiz-adv-x="658" 
d="M480 302h91v-104h-133v-198h-217v198h-133v104h90l-186 388h223l87 -217c12 -30 16 -66 21 -97h13c5 31 10 68 21 98l86 216h223z" />
    <glyph glyph-name="uni04B6" unicode="&#x4b6;" horiz-adv-x="739" 
d="M727 142v-293h-157l-15 151h-139v261c-64 -29 -136 -45 -186 -45c-135 0 -195 56 -195 180v294h217v-247c-3 -40 10 -50 59 -50c27 0 58 0 105 14v283h217v-548h94z" />
    <glyph glyph-name="uni04BA" unicode="&#x4ba;" horiz-adv-x="694" 
d="M274 690v-261c65 29 139 45 189 45c135 0 196 -56 196 -180v-294h-217v247c3 40 -10 50 -60 50c-28 0 -61 0 -108 -14v-283h-217v690h217z" />
    <glyph glyph-name="uni04C0" unicode="&#x4c0;" horiz-adv-x="329" 
d="M272 0h-215v690h215v-690z" />
    <glyph glyph-name="uni0430" unicode="&#x430;" horiz-adv-x="594" 
d="M68 356l-19 133c76 14 209 25 285 25c141 0 219 -48 219 -204v-310h-167l-19 70c-34 -43 -88 -84 -173 -84c-93 0 -172 48 -172 142v50c0 80 63 129 165 129h156v4c-1 35 -15 50 -59 50c-52 0 -131 -1 -216 -5zM226 175v-16c0 -18 14 -31 42 -31c23 0 50 10 75 25v53h-79
c-25 0 -38 -13 -38 -31z" />
    <glyph glyph-name="uni0431" unicode="&#x431;" horiz-adv-x="615" 
d="M531 741l28 -159c-99 -52 -185 -18 -268 -41c-40 -11 -64 -23 -78 -41c-18 -22 -21 -43 -26 -76h4c45 42 95 58 171 58c169 0 226 -68 226 -235c0 -177 -70 -259 -266 -259c-279 0 -287 144 -287 330c0 184 30 318 184 373c108 38 210 9 312 50zM310 362
c-51 0 -60 -18 -60 -113c0 -100 11 -119 59 -119s59 19 59 119c0 95 -11 113 -58 113z" />
    <glyph glyph-name="uni0432" unicode="&#x432;" horiz-adv-x="593" 
d="M441 260v-5c96 -6 131 -52 131 -131c0 -105 -69 -133 -220 -133c-136 0 -216 1 -306 6v503c81 5 155 6 276 6c171 0 230 -28 230 -133c0 -71 -31 -107 -111 -113zM243 308h71c35 0 44 8 44 35c0 28 -10 35 -46 35h-69v-70zM243 122h72c37 0 49 8 49 44
c0 33 -12 41 -50 41h-71v-85z" />
    <glyph glyph-name="uni0433" unicode="&#x433;" horiz-adv-x="493" 
d="M43 0v376c0 92 46 132 146 132s218 0 299 -17l-10 -146h-193c-25 0 -34 -8 -34 -30v-315h-208z" />
    <glyph glyph-name="uni0453" unicode="&#x453;" horiz-adv-x="493" 
d="M462 635l-255 -103l-57 86l233 150zM43 0v376c0 92 46 132 146 132s218 0 299 -17l-10 -146h-193c-25 0 -34 -8 -34 -30v-315h-208z" />
    <glyph glyph-name="uni0491" unicode="&#x491;" horiz-adv-x="493" 
d="M488 642v-151l-10 -146h-193c-25 0 -34 -8 -34 -30v-315h-208v376c0 92 46 132 146 132c47 0 98 0 147 -2l15 136h137z" />
    <glyph glyph-name="uni0434" unicode="&#x434;" horiz-adv-x="673" 
d="M661 136v-272h-139l-14 136h-345l-14 -136h-139v272h61c28 81 44 160 58 242c13 80 57 122 147 122h299v-364h86zM378 136v236h-28c-22 0 -36 -10 -40 -35c-15 -86 -32 -149 -53 -201h121z" />
    <glyph glyph-name="uni0435" unicode="&#x435;" 
d="M375 204h-125c8 -41 30 -55 83 -55c40 0 117 2 203 11l19 -126c-71 -36 -155 -46 -245 -46c-209 0 -285 88 -285 258c0 197 77 268 284 268c188 0 259 -61 260 -178c1 -93 -47 -132 -194 -132zM246 303h70c45 0 52 4 52 38c0 32 -15 38 -53 38c-51 1 -66 -8 -69 -76z" />
    <glyph glyph-name="uni0451" unicode="&#x451;" 
d="M250 575h-69c-26 0 -39 13 -39 39v63c0 26 13 39 39 39h69c26 0 39 -13 39 -39v-63c0 -26 -13 -39 -39 -39zM439 575h-69c-26 0 -39 13 -39 39v63c0 26 13 39 39 39h69c26 0 39 -13 39 -39v-63c0 -26 -13 -39 -39 -39zM375 204h-125c8 -41 30 -55 83 -55
c40 0 117 2 203 11l19 -126c-71 -36 -155 -46 -245 -46c-209 0 -285 88 -285 258c0 197 77 268 284 268c188 0 259 -61 260 -178c1 -93 -47 -132 -194 -132zM246 303h70c45 0 52 4 52 38c0 32 -15 38 -53 38c-51 1 -66 -8 -69 -76z" />
    <glyph glyph-name="uni0436" unicode="&#x436;" horiz-adv-x="856" 
d="M656 264v-6c124 -19 120 -8 194 -258h-212c-54 168 -61 191 -83 194h-40c3 -15 5 -28 5 -40v-154h-184v154c0 12 2 25 6 40h-40c-20 -3 -28 -26 -83 -194h-212c74 250 69 239 194 258v6c-121 16 -108 13 -178 236h206c54 -176 53 -176 94 -176h21c-5 22 -7 44 -7 65v111
h183v-111c0 -21 -3 -43 -7 -65h19c43 0 41 0 95 176h206c-69 -223 -56 -220 -177 -236z" />
    <glyph glyph-name="uni0437" unicode="&#x437;" horiz-adv-x="535" 
d="M42 353l-13 134c73 22 153 27 198 27c188 0 266 -16 266 -138c0 -79 -33 -110 -110 -116v-5c93 -6 130 -49 130 -130c0 -125 -87 -139 -247 -139c-83 0 -161 4 -247 24l13 134c87 -9 163 -12 219 -12c39 0 48 1 48 32c0 23 -7 24 -49 26l-168 4v117l167 4
c32 2 39 3 39 24c0 25 -7 26 -47 26c-69 0 -139 -5 -199 -12z" />
    <glyph glyph-name="uni0438" unicode="&#x438;" horiz-adv-x="632" 
d="M586 0l-187 -2v196c0 31 3 59 8 94h-5c-9 -29 -27 -67 -42 -90l-128 -198h-186v500h186v-209c0 -27 -3 -50 -8 -81h5c9 31 23 52 39 78l132 212h186v-500z" />
    <glyph glyph-name="uni0439" unicode="&#x439;" horiz-adv-x="632" 
d="M368 722h127c16 -86 -55 -173 -178 -173s-195 87 -179 173h127c-8 -62 13 -77 52 -77c38 0 59 15 51 77zM586 0l-187 -2v196c0 31 3 59 8 94h-5c-9 -29 -27 -67 -42 -90l-128 -198h-186v500h186v-209c0 -27 -3 -50 -8 -81h5c9 31 23 52 39 78l132 212h186v-500z" />
    <glyph glyph-name="uni045D" unicode="&#x45d;" horiz-adv-x="632" 
d="M417 618l-57 -86l-255 103l79 133zM586 0l-187 -2v196c0 31 3 59 8 94h-5c-9 -29 -27 -67 -42 -90l-128 -198h-186v500h186v-209c0 -27 -3 -50 -8 -81h5c9 31 23 52 39 78l132 212h186v-500z" />
    <glyph glyph-name="uni043A" unicode="&#x43a;" horiz-adv-x="594" 
d="M401 263v-6c121 -19 115 -3 186 -257h-218c-42 158 -48 187 -73 191h-46c3 -14 5 -28 5 -39v-152h-209v500h209v-109c0 -20 -2 -43 -7 -66h18c56 0 53 6 92 175h212c-67 -228 -49 -219 -169 -237z" />
    <glyph glyph-name="uni045C" unicode="&#x45c;" horiz-adv-x="594" 
d="M266 532l-57 86l233 150l79 -133zM401 263v-6c121 -19 115 -3 186 -257h-218c-42 158 -48 187 -73 191h-46c3 -14 5 -28 5 -39v-152h-209v500h209v-109c0 -20 -2 -43 -7 -66h18c56 0 53 6 92 175h212c-67 -228 -49 -219 -169 -237z" />
    <glyph glyph-name="uni043B" unicode="&#x43b;" horiz-adv-x="622" 
d="M576 500v-500h-209v364h-26c-26 0 -40 -12 -42 -35c-8 -74 -19 -155 -25 -197c-19 -139 -134 -161 -250 -137l-21 153c39 5 73 -2 83 40c7 27 15 84 22 182c6 85 51 130 137 130h331z" />
    <glyph glyph-name="uni043C" unicode="&#x43c;" horiz-adv-x="822" 
d="M525 500h176c47 0 70 -24 71 -71l11 -429h-190l-11 348h-11l-41 -211c-7 -43 -34 -64 -78 -64h-83c-44 0 -72 21 -79 64l-42 211h-11l-7 -348h-190l10 429c1 47 25 71 72 71h172c43 0 71 -21 77 -65l29 -156c5 -26 5 -50 7 -76h6c3 26 2 50 7 76l27 156c6 44 34 65 78 65
z" />
    <glyph glyph-name="uni043D" unicode="&#x43d;" horiz-adv-x="628" 
d="M582 500v-500h-206v195h-123v-195h-207v500h207v-170h123v170h206z" />
    <glyph glyph-name="uni043E" unicode="&#x43e;" horiz-adv-x="611" 
d="M306 514c204 0 279 -70 279 -265c0 -192 -75 -261 -279 -261c-205 0 -280 69 -280 261c0 195 75 265 280 265zM306 372c-49 0 -60 -20 -60 -123c0 -100 11 -119 60 -119c48 0 59 19 59 119c0 103 -11 123 -59 123z" />
    <glyph glyph-name="uni043F" unicode="&#x43f;" horiz-adv-x="621" 
d="M575 501v-501h-204v365h-121v-365h-204v501h529z" />
    <glyph glyph-name="uni0440" unicode="&#x440;" horiz-adv-x="623" 
d="M214 500l17 -68c31 44 104 80 184 80c130 0 180 -98 180 -268c0 -206 -65 -258 -189 -258c-58 0 -113 12 -153 42c2 -35 4 -74 3 -109v-99h-210v680h168zM256 343v-207c18 -7 37 -13 66 -13c41 0 57 12 57 119c0 108 -16 119 -54 119c-33 0 -49 -8 -69 -18z" />
    <glyph glyph-name="uni0441" unicode="&#x441;" horiz-adv-x="528" 
d="M491 161l19 -131c-59 -31 -141 -42 -218 -42c-196 0 -266 70 -266 263s71 263 268 263c61 0 149 -8 209 -37l-21 -130h-152c-64 0 -84 -19 -84 -96c0 -78 20 -97 84 -97c34 0 98 0 161 7z" />
    <glyph glyph-name="uni0442" unicode="&#x442;" horiz-adv-x="537" 
d="M526 344h-153v-344h-209v344h-153v156h515v-156z" />
    <glyph glyph-name="uni0443" unicode="&#x443;" horiz-adv-x="602" 
d="M604 500l-159 -486c-43 -144 -112 -186 -199 -211c-61 -17 -138 -15 -206 0l16 133c71 -1 116 6 148 22c16 8 31 24 42 42h-35c-32 0 -57 19 -66 49l-148 451h223l59 -276c5 -31 9 -63 13 -94h9c9 32 16 69 21 94l59 276h223z" />
    <glyph glyph-name="uni045E" unicode="&#x45e;" horiz-adv-x="602" 
d="M351 722h127c16 -86 -55 -173 -178 -173s-195 87 -179 173h127c-8 -62 13 -77 52 -77c38 0 59 15 51 77zM604 500l-159 -486c-43 -144 -112 -186 -199 -211c-61 -17 -138 -15 -206 0l16 133c71 -1 116 6 148 22c16 8 31 24 42 42h-35c-32 0 -57 19 -66 49l-148 451h223
l59 -276c5 -31 9 -63 13 -94h9c9 32 16 69 21 94l59 276h223z" />
    <glyph glyph-name="uni0444" unicode="&#x444;" horiz-adv-x="780" 
d="M483 700v-189c196 -17 271 -92 271 -262c0 -168 -75 -242 -271 -258v-171h-187v171c-196 17 -271 91 -271 258c0 170 75 245 271 261v190h187zM473 377v-252c66 11 83 43 83 124c0 83 -17 116 -83 128zM306 125v252c-66 -12 -83 -45 -83 -128c0 -81 17 -113 83 -124z" />
    <glyph glyph-name="uni0445" unicode="&#x445;" horiz-adv-x="606" 
d="M401 0l-98 188l-98 -188h-208l145 255l-134 245h207l88 -175l88 175h207l-134 -245l145 -255h-208z" />
    <glyph glyph-name="uni0447" unicode="&#x447;" horiz-adv-x="605" 
d="M559 500v-500h-209v166c-46 -16 -97 -25 -147 -25c-119 0 -172 37 -172 119v240h209v-179c0 -20 9 -30 35 -30c23 0 46 3 75 14v195h209z" />
    <glyph glyph-name="uni0446" unicode="&#x446;" horiz-adv-x="659" 
d="M646 136v-272h-139l-14 136h-447v500h207v-364h106v364h207v-364h80z" />
    <glyph glyph-name="uni0448" unicode="&#x448;" horiz-adv-x="870" 
d="M824 500v-500h-778v500h202v-364h95v364h184v-364h95v364h202z" />
    <glyph glyph-name="uni0449" unicode="&#x449;" horiz-adv-x="914" 
d="M901 136v-272h-139l-14 136h-702v500h202v-364h94v364h184v-364h94v364h202v-364h79z" />
    <glyph glyph-name="uni045F" unicode="&#x45f;" horiz-adv-x="625" 
d="M579 0h-184l-12 -162h-141l-13 162h-183v500h208v-364h119v364h206v-500z" />
    <glyph glyph-name="uni044C" unicode="&#x44c;" horiz-adv-x="563" 
d="M247 343h39c198 0 261 -37 261 -174c0 -136 -70 -175 -225 -175c-122 0 -191 1 -270 6h-6v500h201v-157zM247 128h39c43 0 51 8 51 49c0 43 -8 50 -51 50h-39v-99z" />
    <glyph glyph-name="uni044A" unicode="&#x44a;" horiz-adv-x="683" 
d="M375 343h34c196 0 258 -37 258 -174c0 -136 -69 -175 -221 -175c-121 0 -189 1 -267 6h-6v350h-162v150h364v-157zM375 128h34c40 0 47 8 47 49c0 43 -6 50 -47 50h-34v-99z" />
    <glyph glyph-name="uni044B" unicode="&#x44b;" horiz-adv-x="842" 
d="M248 343h35c196 0 259 -37 259 -174c0 -136 -69 -175 -222 -175c-121 0 -189 1 -268 6h-6v500h202v-157zM796 500v-500h-211v500h211zM248 128h35c41 0 48 8 48 49c0 43 -6 50 -48 50h-35v-99z" />
    <glyph glyph-name="uni0459" unicode="&#x459;" horiz-adv-x="843" 
d="M551 339h27c189 0 249 -37 249 -173c0 -133 -66 -172 -215 -172c-114 0 -173 3 -248 6h-6v376h-24c-26 0 -37 -10 -40 -42c-5 -50 -19 -152 -35 -207c-36 -122 -118 -153 -233 -131l-13 144c36 3 69 7 79 48c9 36 20 114 28 183c9 85 55 129 144 129h287v-161zM551 124
h27c43 0 49 9 49 50c0 43 -7 50 -49 50h-27v-100z" />
    <glyph glyph-name="uni045A" unicode="&#x45a;" horiz-adv-x="833" 
d="M542 324h37c181 0 239 -35 239 -158c0 -133 -63 -172 -205 -172c-115 0 -187 1 -263 6h-4v201h-109v-201h-191v500h191v-175h109v175h196v-176zM542 124h37c33 0 39 9 39 44s-5 42 -39 42h-37v-86z" />
    <glyph glyph-name="uni0454" unicode="&#x454;" horiz-adv-x="564" 
d="M528 148l15 -129c-63 -25 -142 -33 -220 -33c-218 0 -297 68 -297 262c0 199 79 266 297 266c81 0 150 -6 216 -31l-16 -126c-66 -1 -117 -1 -200 -1c-51 1 -73 -5 -82 -48h250v-110h-252c7 -52 30 -54 84 -54c89 0 143 1 205 4z" />
    <glyph glyph-name="uni044D" unicode="&#x44d;" horiz-adv-x="564" 
d="M41 357l-16 126c66 23 145 31 216 31c218 0 297 -67 297 -266c0 -194 -79 -262 -297 -262c-88 0 -157 10 -220 33l15 129c62 -3 116 -4 205 -4c57 0 78 2 84 54h-251v110h249c-9 43 -31 49 -82 49c-83 0 -134 -1 -200 0z" />
    <glyph glyph-name="uni044E" unicode="&#x44e;" horiz-adv-x="870" 
d="M256 323h71c16 154 86 191 248 191c195 0 268 -48 268 -266c0 -210 -73 -259 -268 -259c-166 0 -236 39 -249 198h-70v-187h-210v500h210v-177zM572 144c47 0 54 14 54 107c0 94 -7 108 -54 108c-51 0 -56 -14 -56 -108c0 -93 5 -107 56 -107z" />
    <glyph glyph-name="uni044F" unicode="&#x44f;" horiz-adv-x="587" 
d="M145 211v5c-86 18 -109 80 -109 133c0 135 46 165 243 165c144 0 200 -1 262 -8v-506h-204v157h-44c-28 0 -35 -3 -38 -23l-29 -134h-214l37 160c14 43 67 49 96 51zM337 280v90h-54c-35 0 -43 -7 -43 -34c0 -47 8 -56 43 -56h54z" />
    <glyph glyph-name="uni0452" unicode="&#x452;" horiz-adv-x="628" 
d="M277 467v-6c0 -39 -4 -79 -10 -110c61 49 127 73 186 73c97 0 147 -48 147 -140v-284h-211v217c0 22 -10 30 -36 30c-21 0 -42 -1 -76 -12v-235h-211v467h-56v90h56v143h211v-143h166v-90h-166z" />
    <glyph glyph-name="uni0455" unicode="&#x455;" horiz-adv-x="553" 
d="M265 174l-110 30c-110 32 -131 86 -131 164c0 91 56 146 232 146c80 0 193 -9 256 -22l-13 -122h-197c-67 0 -75 1 -75 -12c0 -11 11 -11 59 -24l115 -29c89 -25 132 -64 132 -151c0 -127 -68 -165 -242 -165c-48 0 -150 2 -260 21l13 122h178c95 0 108 0 108 15
c0 12 -13 12 -65 27z" />
    <glyph glyph-name="uni0456" unicode="&#x456;" horiz-adv-x="309" 
d="M110 729h89c41 0 61 -20 61 -62v-51c0 -42 -20 -62 -61 -62h-89c-41 0 -61 20 -61 62v51c0 42 20 62 61 62zM259 0h-209v500h209v-500z" />
    <glyph glyph-name="uni0457" unicode="&#x457;" horiz-adv-x="311" 
d="M25 716h69c26 0 39 -13 39 -39v-63c0 -26 -13 -39 -39 -39h-69c-26 0 -39 13 -39 39v63c0 26 13 39 39 39zM214 716h69c26 0 39 -13 39 -39v-63c0 -26 -13 -39 -39 -39h-69c-26 0 -39 13 -39 39v63c0 26 13 39 39 39zM261 0h-211v500h211v-500z" />
    <glyph glyph-name="uni0458" unicode="&#x458;" horiz-adv-x="309" 
d="M107 739h89c41 0 61 -20 61 -62v-51c0 -42 -20 -62 -61 -62h-89c-41 0 -61 20 -61 62v51c0 42 20 62 61 62zM259 500v-442c0 -104 -61 -207 -162 -248l-116 92c53 53 69 99 69 156v442h209z" />
    <glyph glyph-name="uni045B" unicode="&#x45b;" horiz-adv-x="628" 
d="M277 467v-6c0 -39 -4 -79 -10 -110c61 49 127 73 186 73c97 0 147 -48 147 -140v-226c0 -104 -57 -207 -153 -248l-117 92c48 53 59 99 59 156v159c0 22 -10 30 -36 30c-21 0 -42 -1 -76 -12v-235h-211v467h-56v90h56v143h211v-143h166v-90h-166z" />
    <glyph glyph-name="uni04B1" unicode="&#x4b1;" horiz-adv-x="654" 
d="M478 117h90v-124h-131v-173h-218v173h-131v124h89l-184 383h223l85 -212c12 -30 15 -66 21 -97h12c6 31 9 68 21 98l84 211h223z" />
    <glyph glyph-name="uni04B7" unicode="&#x4b7;" horiz-adv-x="646" 
d="M633 136v-272h-139l-14 136h-135v166c-45 -16 -94 -25 -144 -25c-117 0 -170 37 -170 119v240h209v-179c0 -20 9 -30 33 -30c22 0 44 3 72 13v196h208v-364h80z" />
    <glyph glyph-name="Delta" unicode="&#x394;" horiz-adv-x="704" 
d="M687 68v-68h-670v68l228 622h214zM446 152l-74 231c-9 33 -14 67 -20 101c-7 -34 -12 -68 -21 -101l-73 -231h188z" />
    <glyph glyph-name="Omega" unicode="&#x3a9;" horiz-adv-x="720" 
d="M36 162h68c25 0 46 -4 75 -20c-98 81 -137 142 -137 263c0 202 86 299 319 299s317 -97 317 -303c0 -122 -37 -183 -137 -259c29 14 50 20 75 20h68v-162h-305v152c57 56 73 109 73 220c0 143 -17 172 -92 172s-92 -29 -92 -174c0 -123 19 -160 73 -218v-152h-305v162z
" />
    <glyph glyph-name="mu" unicode="&#x3bc;" horiz-adv-x="653" 
d="M591 500v-500h-164l-19 73c-56 -53 -112 -81 -177 -86c6 -20 9 -41 9 -60v-107h-181v680h210v-307c0 -22 12 -31 39 -31c21 0 41 2 73 12v326h210z" />
    <glyph glyph-name="pi" unicode="&#x3c0;" horiz-adv-x="655" 
d="M642 365h-64v-365h-210v365h-81v-365h-210v365h-64v136h629v-136z" />
    <glyph glyph-name="zero" unicode="0" horiz-adv-x="659" 
d="M329 704c220 0 296 -85 296 -359s-76 -359 -296 -359c-219 0 -295 85 -295 359s76 359 295 359zM328 543c-63 0 -79 -20 -79 -198s16 -198 79 -198c66 0 82 20 82 198s-16 198 -82 198z" />
    <glyph glyph-name="one" unicode="1" horiz-adv-x="466" 
d="M394 0h-216v432c0 30 1 59 8 89l-159 -31l-25 133l176 67h216v-690z" />
    <glyph glyph-name="two" unicode="2" horiz-adv-x="600" 
d="M46 521l-7 159c104 19 179 22 258 22c153 0 255 -34 255 -172c0 -72 -13 -112 -105 -204l-163 -154c31 9 59 11 92 10h192v-182h-535v108c0 35 8 61 30 87l144 141c75 75 123 135 123 166c0 19 -16 21 -61 21c-74 0 -125 0 -223 -2z" />
    <glyph glyph-name="three" unicode="3" horiz-adv-x="578" 
d="M49 539l-6 146c81 13 163 19 242 19c177 0 240 -38 240 -161c0 -102 -21 -161 -114 -174v-4c100 -15 131 -65 132 -173c2 -148 -68 -206 -257 -206c-86 0 -177 8 -258 19l6 152c93 -4 133 -5 192 -5c82 0 103 7 103 70c0 53 -14 70 -77 69l-133 -2v132h133
c66 0 71 21 71 62c0 46 -16 56 -77 56h-197z" />
    <glyph glyph-name="four" unicode="4" horiz-adv-x="659" 
d="M642 278v-118l-77 -20h-2v-140h-197v140h-277c-57 0 -94 50 -74 103l167 447h200l-140 -387c-6 -15 2 -25 17 -25h107v170l35 106h162v-276h79z" />
    <glyph glyph-name="five" unicode="5" horiz-adv-x="568" 
d="M513 535h-284l-6 -72l128 -17c156 -19 190 -131 190 -231c0 -129 -62 -227 -261 -227c-73 0 -164 7 -256 18l18 161c68 -3 131 -6 181 -6c80 0 99 16 103 62c4 47 -23 63 -92 68l-126 16c-36 5 -61 33 -59 68l19 315h452z" />
    <glyph glyph-name="six" unicode="6" horiz-adv-x="608" 
d="M528 551h-181c-81 0 -100 -20 -104 -129c36 26 76 34 134 34c161 0 206 -63 206 -210c0 -183 -50 -258 -270 -258c-208 0 -278 67 -278 351c0 314 104 363 312 363c38 0 114 0 189 -22zM315 139c64 0 66 24 66 102c0 64 -12 73 -69 73c-26 0 -45 -5 -70 -17
c1 -140 8 -158 73 -158z" />
    <glyph glyph-name="seven" unicode="7" horiz-adv-x="543" 
d="M14 690h443c58 0 96 -47 77 -101l-207 -589h-211l159 438c9 26 19 53 38 79h-290z" />
    <glyph glyph-name="eight" unicode="8" horiz-adv-x="639" 
d="M163 356v4c-77 8 -108 88 -108 158c0 130 46 186 265 186c221 0 265 -56 265 -186c0 -70 -31 -150 -108 -158v-4c103 -9 126 -96 126 -184c0 -138 -55 -185 -283 -187c-225 -1 -283 49 -283 187c0 88 23 175 126 184zM321 564c-58 0 -72 -11 -72 -75c0 -54 15 -65 74 -65
c57 0 68 11 68 65c0 64 -13 75 -70 75zM322 292c-68 0 -82 -16 -82 -80c0 -62 15 -75 81 -75c64 0 78 13 78 75c0 66 -14 80 -77 80z" />
    <glyph glyph-name="nine" unicode="9" horiz-adv-x="608" 
d="M55 10l9 130c65 -1 100 -1 196 -1c80 0 99 30 104 129c-36 -25 -76 -34 -134 -34c-158 0 -203 83 -203 210c0 183 55 258 269 258c224 0 276 -67 276 -351c0 -314 -84 -363 -312 -363c-41 0 -120 0 -205 22zM230 449c0 -63 12 -73 66 -73c26 0 44 5 69 18
c-1 139 -8 157 -71 157c-61 0 -64 -24 -64 -102z" />
    <glyph glyph-name="fraction" unicode="&#x2044;" horiz-adv-x="160" 
d="M-48 0h-126l380 690h126z" />
    <glyph glyph-name="onehalf" unicode="&#xbd;" horiz-adv-x="943" 
d="M280 276h-160v231c0 20 1 39 6 60l-89 -14l-18 98l101 39h160v-414zM296 0h-126l386 690h127zM568 292l-4 117c65 11 128 12 157 12c125 0 183 -20 183 -118c0 -26 -22 -67 -63 -102l-87 -75c20 6 35 9 55 8l104 -3v-131h-353v79c0 26 4 47 22 64l72 63
c38 35 68 62 76 74c6 9 -4 10 -26 10c-45 0 -76 0 -136 2z" />
    <glyph glyph-name="onequarter" unicode="&#xbc;" horiz-adv-x="944" 
d="M120 276v231c0 20 1 39 6 60l-89 -14l-18 98l101 39h160v-414h-160zM683 690l-387 -690h-126l387 690h126zM920 177v-87l-44 -14h-1v-76h-147v76h-172c-38 0 -63 31 -49 65l103 273h141l-83 -227c-3 -8 1 -10 10 -10h50v93l25 61h122v-154h45z" />
    <glyph glyph-name="threequarters" unicode="&#xbe;" horiz-adv-x="1017" 
d="M285 494v-2c70 -9 89 -36 90 -104c1 -91 -45 -124 -173 -124c-58 0 -118 5 -172 12l4 113c64 -2 85 -1 122 -1c50 0 55 2 55 23c0 23 -4 27 -37 26h-85v95h85c31 0 34 3 34 23c0 16 -3 17 -35 18c-48 1 -95 2 -129 2l-4 109c55 8 110 12 163 12c121 0 160 -23 160 -97
c0 -64 -12 -97 -78 -105zM759 690l-387 -690h-126l386 690h127zM995 177v-87l-44 -14h-1v-76h-147v76h-171c-39 0 -63 31 -50 65l103 273h141l-83 -227c-3 -8 1 -10 11 -10h49v93l25 61h122v-154h45z" />
    <glyph glyph-name="onesuperior" unicode="&#xb9;" horiz-adv-x="321" 
d="M275 360h-160v231c0 20 1 39 6 60l-97 -14l-18 98l109 39h160v-414z" />
    <glyph glyph-name="twosuperior" unicode="&#xb2;" horiz-adv-x="431" 
d="M45 652l-4 117c66 11 130 12 160 12c126 0 185 -20 185 -118c0 -26 -22 -67 -64 -102l-91 -75c20 6 36 9 57 8l108 -3v-131h-359v79c0 26 4 47 22 64l75 63c41 35 70 62 78 74c6 9 -5 10 -28 10c-46 0 -78 0 -139 2z" />
    <glyph glyph-name="threesuperior" unicode="&#xb3;" horiz-adv-x="411" 
d="M46 662l-4 109c56 8 112 12 165 12c124 0 165 -23 165 -97c0 -64 -13 -97 -80 -105v-2c71 -9 91 -36 92 -104c1 -91 -46 -124 -177 -124c-59 0 -120 5 -175 12l4 113c64 -2 87 -1 125 -1c53 0 59 2 59 23c0 20 -5 23 -41 24l-87 3v93l87 4c34 1 38 3 38 20
c0 16 -5 18 -39 18c-49 0 -97 1 -132 2z" />
    <glyph glyph-name="asterisk" unicode="*" horiz-adv-x="456" 
d="M268 517l113 -129l-89 -66l-64 119l-63 -119l-90 66l115 128l-18 176h112zM433 516l-120 -24l-25 30l-2 49l113 52zM170 571v-49l-25 -30l-122 24l34 106z" />
    <glyph glyph-name="backslash" unicode="\" horiz-adv-x="588" 
d="M573 -79h-165l-393 769h165z" />
    <glyph glyph-name="bullet" unicode="&#x2022;" horiz-adv-x="381" 
d="M186 402h17c91 0 122 -31 122 -122v-17c0 -99 -31 -130 -122 -130h-17c-99 0 -130 31 -130 130v17c0 91 31 122 130 122z" />
    <glyph glyph-name="colon" unicode=":" horiz-adv-x="277" 
d="M107 462h47c55 0 72 -17 72 -72v-41c0 -55 -17 -72 -72 -72h-47c-55 0 -72 17 -72 72v41c0 55 17 72 72 72zM107 186h47c55 0 72 -17 72 -72v-41c0 -55 -17 -72 -72 -72h-47c-55 0 -72 17 -72 72v41c0 55 17 72 72 72z" />
    <glyph glyph-name="comma" unicode="," horiz-adv-x="255" 
d="M106 185h41c53 0 71 -17 72 -72v-64c0 -101 -25 -153 -67 -211l-78 25c15 45 18 92 19 137c-41 0 -60 23 -61 64l3 49c1 55 18 72 71 72z" />
    <glyph glyph-name="ellipsis" unicode="&#x2026;" horiz-adv-x="925" 
d="M98 185h47c55 0 72 -17 72 -72v-41c0 -55 -17 -72 -72 -72h-47c-55 0 -72 17 -72 72v41c0 55 17 72 72 72zM431 185h47c55 0 72 -17 72 -72v-41c0 -55 -17 -72 -72 -72h-47c-55 0 -72 17 -72 72v41c0 55 17 72 72 72zM764 185h47c55 0 72 -17 72 -72v-41
c0 -55 -17 -72 -72 -72h-47c-55 0 -72 17 -72 72v41c0 55 17 72 72 72z" />
    <glyph glyph-name="exclam" unicode="!" horiz-adv-x="329" 
d="M268 461l-22 -234h-164l-22 234v234h208v-234zM141 185h47c55 0 72 -17 72 -72v-41c0 -55 -17 -72 -72 -72h-47c-55 0 -72 17 -72 72v41c0 55 17 72 72 72z" />
    <glyph glyph-name="exclamdown" unicode="&#xa1;" horiz-adv-x="312" 
d="M133 520h47c55 0 72 -17 72 -72v-41c0 -55 -17 -72 -72 -72h-47c-55 0 -72 17 -72 72v41c0 55 17 72 72 72zM260 59v-234h-208v234l22 234h164z" />
    <glyph glyph-name="numbersign" unicode="#" horiz-adv-x="740" 
d="M584 404l-17 -100h110l-24 -122h-107l-32 -182h-155l32 182h-96l-32 -182h-155l32 182h-118l24 122h115l17 100h-114l24 122h111l29 164h155l-29 -164h96l29 164h155l-29 -164h114l-24 -122h-111zM429 404h-96l-17 -100h96z" />
    <glyph glyph-name="period" unicode="." horiz-adv-x="259" 
d="M106 185h47c55 0 72 -17 72 -72v-41c0 -55 -17 -72 -72 -72h-47c-55 0 -72 17 -72 72v41c0 55 17 72 72 72z" />
    <glyph glyph-name="periodcentered" unicode="&#xb7;" horiz-adv-x="265" 
d="M109 351h47c55 0 72 -17 72 -72v-41c0 -55 -17 -72 -72 -72h-47c-55 0 -72 17 -72 72v41c0 55 17 72 72 72z" />
    <glyph glyph-name="question" unicode="?" horiz-adv-x="536" 
d="M29 546l-5 138c83 16 122 28 264 28c154 0 227 -49 227 -155c0 -145 -162 -166 -182 -330h-164c-10 166 113 239 123 286c6 25 -10 33 -56 33h-207zM227 185h47c55 0 72 -17 72 -72v-41c0 -55 -17 -72 -72 -72h-47c-55 0 -72 17 -72 72v41c0 55 17 72 72 72z" />
    <glyph glyph-name="questiondown" unicode="&#xbf;" horiz-adv-x="531" 
d="M260 518h47c55 0 72 -17 72 -72v-41c0 -55 -17 -72 -72 -72h-47c-55 0 -72 17 -72 72v41c0 55 17 72 72 72zM201 291h164c10 -166 -113 -239 -123 -286c-6 -25 10 -33 56 -33h207l5 -138c-83 -16 -122 -28 -264 -28c-154 0 -227 49 -227 155c0 145 162 166 182 330z" />
    <glyph glyph-name="quotedbl" unicode="&#x22;" horiz-adv-x="393" 
d="M167 462h-120l-12 228h144zM346 462h-120l-12 228h144z" />
    <glyph glyph-name="quotesingle" unicode="'" horiz-adv-x="214" 
d="M167 462h-120l-12 228h144z" />
    <glyph glyph-name="semicolon" unicode=";" horiz-adv-x="277" 
d="M116 462h47c55 0 72 -17 72 -72v-41c0 -55 -17 -72 -72 -72h-47c-55 0 -72 17 -72 72v41c0 55 17 72 72 72zM116 185h41c53 0 71 -17 72 -72v-64c0 -101 -25 -153 -67 -211l-78 25c15 45 18 92 19 137c-41 0 -60 23 -61 64l3 49c1 55 18 72 71 72z" />
    <glyph glyph-name="slash" unicode="/" horiz-adv-x="588" 
d="M180 -79h-165l393 769h165z" />
    <glyph glyph-name="underscore" unicode="_" horiz-adv-x="531" 
d="M491 -122h-451v122h451v-122z" />
    <glyph glyph-name="braceleft" unicode="{" horiz-adv-x="359" 
d="M330 768v-128c-48 0 -63 1 -63 -38v-125c2 -85 -22 -136 -116 -149c94 -25 119 -75 120 -145v-185c0 -39 15 -35 63 -35v-128c-186 -30 -263 43 -263 146v222c0 43 -14 46 -49 60v130c37 12 45 12 45 64v165c0 103 77 176 263 146z" />
    <glyph glyph-name="braceright" unicode="}" horiz-adv-x="359" 
d="M29 640v128c186 30 263 -43 263 -146v-165c0 -52 8 -52 45 -64v-130c-35 -14 -49 -17 -49 -60v-222c0 -103 -77 -176 -263 -146v128c48 0 63 -4 63 35v185c1 70 26 120 120 145c-94 13 -118 64 -116 149v125c0 39 -15 38 -63 38z" />
    <glyph glyph-name="bracketleft" unicode="[" horiz-adv-x="363" 
d="M339 640h-60c-13 0 -22 -9 -22 -22v-633c0 -13 9 -22 22 -22h60v-128h-177c-60 0 -101 21 -101 101v731c0 60 41 101 101 101h177v-128z" />
    <glyph glyph-name="bracketright" unicode="]" horiz-adv-x="363" 
d="M24 768h177c60 0 101 -41 101 -101v-731c0 -60 -41 -101 -101 -101h-177v128h60c13 0 22 9 22 22v633c0 13 -9 22 -22 22h-60v128z" />
    <glyph glyph-name="parenleft" unicode="(" horiz-adv-x="372" 
d="M342 790l24 -88c-104 -42 -138 -185 -138 -389c0 -200 34 -344 138 -390l-24 -88c-219 57 -317 207 -317 477c0 272 98 422 317 478z" />
    <glyph glyph-name="parenright" unicode=")" horiz-adv-x="372" 
d="M6 702l24 88c219 -56 317 -206 317 -478c0 -270 -98 -420 -317 -477l-24 88c104 46 138 190 138 390c0 204 -34 347 -138 389z" />
    <glyph glyph-name="emdash" unicode="&#x2014;" horiz-adv-x="819" 
d="M775 196h-731v122h731v-122z" />
    <glyph glyph-name="endash" unicode="&#x2013;" horiz-adv-x="529" 
d="M485 196h-441v122h441v-122z" />
    <glyph glyph-name="hyphen" unicode="-" horiz-adv-x="379" 
d="M335 196h-291v122h291v-122z" />
    <glyph glyph-name="softhyphen" unicode="&#xad;" horiz-adv-x="380" 
d="M335 196h-291v122h291v-122z" />
    <glyph glyph-name="guillemotleft" unicode="&#xab;" horiz-adv-x="552" 
d="M289 401l-86 -150l86 -156l-110 -69l-158 203v44l158 197zM524 401l-86 -150l86 -156l-110 -69l-158 203v44l158 197z" />
    <glyph glyph-name="guillemotright" unicode="&#xbb;" horiz-adv-x="552" 
d="M296 273v-44l-158 -203l-110 69l86 156l-86 150l110 69zM531 273v-44l-158 -203l-110 69l86 156l-86 150l110 69z" />
    <glyph glyph-name="guilsinglleft" unicode="&#x2039;" horiz-adv-x="317" 
d="M289 401l-86 -150l86 -156l-110 -69l-158 203v44l158 197z" />
    <glyph glyph-name="guilsinglright" unicode="&#x203a;" horiz-adv-x="317" 
d="M296 273v-44l-158 -203l-110 69l87 156l-87 150l110 69z" />
    <glyph glyph-name="quotedblbase" unicode="&#x201e;" horiz-adv-x="429" 
d="M97 153h35c46 0 62 -15 63 -65v-58c0 -92 -22 -140 -58 -192l-68 22c13 41 16 84 17 125c-36 0 -52 21 -53 58l2 45c1 50 16 65 62 65zM296 153h35c46 0 62 -15 63 -65v-58c0 -92 -22 -140 -58 -192l-68 22c13 41 16 84 17 125c-36 0 -52 21 -53 58l2 45
c1 50 16 65 62 65z" />
    <glyph glyph-name="quotedblleft" unicode="&#x201c;" horiz-adv-x="420" 
d="M131 395h-35c-46 0 -62 15 -63 65v58c0 92 22 140 58 192l68 -22c-13 -41 -16 -84 -17 -125c36 0 52 -21 53 -58l-2 -45c-1 -50 -16 -65 -62 -65zM330 395h-35c-46 0 -62 15 -63 65v58c0 92 22 140 58 192l68 -22c-13 -41 -16 -84 -17 -125c36 0 52 -21 53 -58l-2 -45
c-1 -50 -16 -65 -62 -65z" />
    <glyph glyph-name="quotedblright" unicode="&#x201d;" horiz-adv-x="417" 
d="M89 700h35c46 0 62 -15 63 -65v-58c0 -92 -22 -140 -58 -192l-68 22c13 41 16 84 17 125c-36 0 -52 21 -53 58l2 45c1 50 16 65 62 65zM288 700h35c46 0 62 -15 63 -65v-58c0 -92 -22 -140 -58 -192l-68 22c13 41 16 84 17 125c-36 0 -52 21 -53 58l2 45
c1 50 16 65 62 65z" />
    <glyph glyph-name="quoteleft" unicode="&#x2018;" horiz-adv-x="221" 
d="M131 395h-35c-46 0 -62 15 -63 65v58c0 92 22 140 58 192l68 -22c-13 -41 -16 -84 -17 -125c36 0 52 -21 53 -58l-2 -45c-1 -50 -16 -65 -62 -65z" />
    <glyph glyph-name="quoteright" unicode="&#x2019;" horiz-adv-x="218" 
d="M89 700h35c46 0 62 -15 63 -65v-58c0 -92 -22 -140 -58 -192l-68 22c13 41 16 84 17 125c-36 0 -52 21 -53 58l2 45c1 50 16 65 62 65z" />
    <glyph glyph-name="quotesinglbase" unicode="&#x201a;" horiz-adv-x="232" 
d="M98 185h35c46 0 62 -17 63 -72v-64c0 -101 -22 -153 -58 -211l-68 25c13 45 16 92 17 137c-36 0 -52 23 -53 64l2 49c1 55 16 72 62 72z" />
    <glyph glyph-name="space" unicode=" " horiz-adv-x="210" 
 />
    <glyph glyph-name="florin" unicode="&#x192;" horiz-adv-x="513" 
d="M471 564h-61c-31 0 -42 -13 -45 -52l-9 -102h94l-10 -126h-95l-26 -301c-9 -94 -60 -163 -192 -163c-34 0 -113 4 -154 14l31 126h61c31 0 42 13 45 52l24 272h-91l9 121l93 5l11 131c9 94 60 163 192 163c34 0 113 -4 154 -14z" />
    <glyph glyph-name="cent" unicode="&#xa2;" horiz-adv-x="541" 
d="M495 247l19 -121c-46 -24 -106 -36 -167 -40l-10 -86h-155l11 92c-122 24 -168 99 -168 255c0 182 64 255 238 262l10 81h156l-11 -90c32 -6 63 -15 89 -27l-21 -120h-154c-79 0 -100 -19 -100 -106c0 -88 21 -107 100 -107c34 0 99 0 163 7z" />
    <glyph glyph-name="currency" unicode="&#xa4;" horiz-adv-x="575" 
d="M542 519l-70 -70c15 -29 24 -62 24 -97c0 -36 -9 -69 -25 -99l71 -69l-86 -85l-70 69c-29 -16 -63 -25 -99 -25c-35 0 -68 9 -98 24l-67 -67l-92 92l69 68c-13 28 -21 59 -21 92c0 36 9 70 25 100l-67 67l86 85l67 -68c29 16 63 25 98 25c37 0 71 -9 101 -26l69 69z
M287 261c48 0 90 42 90 92c0 51 -42 92 -90 92s-90 -41 -90 -92c0 -50 42 -92 90 -92z" />
    <glyph glyph-name="dollar" unicode="$" horiz-adv-x="595" 
d="M303 459l119 -52c111 -50 150 -109 150 -210c0 -144 -55 -202 -231 -210l-10 -97h-155l11 102c-44 5 -94 13 -150 28l13 152c113 -3 210 -5 244 -5c52 0 65 5 65 24s-10 28 -47 42l-131 60c-108 50 -149 107 -149 208c0 148 65 198 245 203l11 85h156l-12 -92
c40 -5 82 -14 121 -28l-13 -139c-58 1 -152 2 -237 2c-48 0 -60 -5 -60 -26c0 -19 12 -29 60 -47z" />
    <glyph glyph-name="Euro" unicode="&#x20ac;" horiz-adv-x="644" 
d="M512 361h-484v110h67c28 157 122 231 321 231c78 0 139 -12 185 -27l-17 -148c-20 2 -134 13 -185 2c-35 -8 -57 -24 -71 -58h195zM604 169l16 -148c-49 -19 -116 -33 -204 -33c-200 0 -293 74 -321 233h-68v110h479l-11 -110h-169c13 -37 36 -54 73 -60
c43 -7 142 -3 205 8z" />
    <glyph glyph-name="sterling" unicode="&#xa3;" horiz-adv-x="603" 
d="M575 167v-167h-537v167c71 33 82 80 76 137l-1 10h-76l-2 100h70l-8 95c-11 154 60 194 222 194c45 0 142 -3 234 -10l-10 -155h-185c-37 0 -52 -12 -49 -39l9 -85h151l-5 -100h-135l1 -10c8 -91 -35 -117 -74 -147c28 10 57 10 86 10h233z" />
    <glyph glyph-name="yen" unicode="&#xa5;" horiz-adv-x="710" 
d="M542 378h69v-110h-510l-2 110h69l-150 312h223l87 -207c13 -30 16 -66 21 -97h13c5 31 9 69 21 98l86 206h223zM99 238h512v-110h-147v-128h-217v128h-146z" />
    <glyph glyph-name="approxequal" unicode="&#x2248;" horiz-adv-x="576" 
d="M176 306h-126c-30 125 35 185 134 176c41 -4 147 -36 187 -41c30 -4 25 10 25 37h125c30 -118 -21 -182 -132 -177c-42 2 -144 36 -189 41c-30 3 -24 -10 -24 -36zM176 102h-126c-30 125 35 186 134 177c41 -4 147 -37 187 -42c30 -4 25 11 25 37h125
c30 -117 -21 -182 -132 -177c-42 2 -144 37 -189 42c-30 3 -24 -10 -24 -37z" />
    <glyph glyph-name="asciitilde" unicode="~" horiz-adv-x="500" 
d="M132 207h-87c-21 119 28 170 85 169c47 -1 182 -38 209 -43c30 -6 29 6 29 38h87c21 -116 -23 -171 -85 -169c-48 1 -177 37 -210 43c-30 5 -28 -6 -28 -38z" />
    <glyph glyph-name="divide" unicode="&#xf7;" horiz-adv-x="535" 
d="M242 577h50c58 0 77 -18 77 -77v-18c0 -59 -19 -77 -77 -77h-50c-59 0 -77 18 -77 77v18c0 59 18 77 77 77zM508 219h-481v146h481v-146zM242 176h50c58 0 77 -18 77 -77v-18c0 -58 -19 -77 -77 -77h-50c-59 0 -77 19 -77 77v18c0 59 18 77 77 77z" />
    <glyph glyph-name="emptyset" unicode="&#x2205;" horiz-adv-x="685" 
d="M343 633c161 0 292 -131 292 -292c0 -162 -131 -293 -292 -293c-162 0 -293 131 -293 293c0 161 131 292 293 292zM312 241h54c0 105 94 120 94 211c0 63 -41 93 -117 93c-66 0 -83 -5 -122 -11l3 -45c40 6 58 9 119 9c42 0 66 -17 66 -46c0 -65 -97 -96 -97 -211z
M359 171h-39c-4 0 -7 -3 -7 -8v-37c0 -4 3 -7 7 -7h39c5 0 8 3 8 7v37c0 5 -3 8 -8 8z" />
    <glyph glyph-name="equal" unicode="=" horiz-adv-x="571" 
d="M526 337h-481v146h481v-146zM526 121h-481v146h481v-146z" />
    <glyph glyph-name="greater" unicode="&#x3e;" horiz-adv-x="502" 
d="M476 384v-161l-432 -158v163l256 75l-256 75v163z" />
    <glyph glyph-name="greaterequal" unicode="&#x2265;" horiz-adv-x="554" 
d="M504 474v-161l-442 -118v163l265 35l-265 33v163zM516 24h-451v158h451v-158z" />
    <glyph glyph-name="infinity" unicode="&#x221e;" horiz-adv-x="756" 
d="M572 458c81 0 156 -47 156 -151c0 -106 -78 -161 -170 -161c-72 0 -133 33 -180 73c-49 -39 -115 -73 -184 -73c-87 0 -166 55 -166 161c0 104 75 151 165 151c78 0 137 -35 186 -79c48 38 118 79 193 79zM175 303c0 -24 15 -35 48 -35c32 0 55 14 77 35
c-18 21 -36 32 -77 32c-33 0 -48 -10 -48 -32zM534 268c32 0 47 11 47 34s-15 33 -47 33c-41 0 -59 -15 -78 -37c18 -16 43 -30 78 -30z" />
    <glyph glyph-name="integral" unicode="&#x222b;" horiz-adv-x="352" 
d="M109 -39l-51 620c-6 88 53 133 129 133c29 0 83 2 143 -4l-12 -151h-60c-12 0 -18 -2 -17 -21l53 -627c8 -91 -25 -133 -141 -133c-14 0 -112 1 -131 4l12 151h55c17 0 22 6 20 28z" />
    <glyph glyph-name="less" unicode="&#x3c;" horiz-adv-x="505" 
d="M461 378l-259 -75l259 -75v-163l-435 158v161l435 157v-163z" />
    <glyph glyph-name="lessequal" unicode="&#x2264;" horiz-adv-x="554" 
d="M492 426l-265 -33l265 -35v-163l-442 118v161l442 115v-163zM489 24h-451v158h451v-158z" />
    <glyph glyph-name="logicalnot" unicode="&#xac;" horiz-adv-x="571" 
d="M523 381v-244h-155v100h-327v144h482z" />
    <glyph glyph-name="minus" unicode="&#x2212;" horiz-adv-x="571" 
d="M526 219h-481v146h481v-146z" />
    <glyph glyph-name="multiply" unicode="&#xd7;" horiz-adv-x="506" 
d="M19 185l96 -115l374 330l-97 116z" />
    <glyph glyph-name="notequal" unicode="&#x2260;" horiz-adv-x="613" 
d="M547 483v-146h-481v146h237l44 123l111 -40l-29 -83h118zM66 267h481v-146h-248l-45 -127l-114 41l31 86h-105v146z" />
    <glyph glyph-name="partialdiff" unicode="&#x2202;" horiz-adv-x="613" 
d="M104 568v136c345 14 495 -66 481 -365c-13 -284 -120 -351 -306 -351c-216 0 -261 148 -252 259c8 98 65 210 227 210c49 0 87 -8 121 -32c-4 101 -52 143 -271 143zM290 144c59 0 68 52 78 161c-22 4 -39 5 -61 5c-52 0 -68 -36 -71 -68c-6 -66 8 -98 54 -98z" />
    <glyph glyph-name="percent" unicode="%" horiz-adv-x="921" 
d="M203 704c136 0 183 -47 183 -206s-47 -206 -183 -206c-134 0 -181 47 -181 206s47 206 181 206zM333 0h-126l380 690h126zM203 595c-24 0 -28 -5 -28 -97c0 -93 4 -97 28 -97c25 0 30 4 30 97c0 92 -5 97 -30 97zM717 398c136 0 183 -47 183 -206s-47 -206 -183 -206
c-134 0 -181 47 -181 206s47 206 181 206zM717 289c-24 0 -28 -4 -28 -97c0 -92 4 -97 28 -97c25 0 30 5 30 97c0 93 -5 97 -30 97z" />
    <glyph glyph-name="perthousand" unicode="&#x2030;" horiz-adv-x="1325" 
d="M203 704c136 0 183 -47 183 -206s-47 -206 -183 -206c-134 0 -181 47 -181 206s47 206 181 206zM333 0h-126l380 690h126zM203 595c-24 0 -28 -5 -28 -97c0 -93 4 -97 28 -97c25 0 30 4 30 97c0 92 -5 97 -30 97zM717 398c136 0 183 -47 183 -206s-47 -206 -183 -206
c-134 0 -181 47 -181 206s47 206 181 206zM1119 398c136 0 183 -47 183 -206s-47 -206 -183 -206c-134 0 -181 47 -181 206s47 206 181 206zM717 289c-24 0 -28 -4 -28 -97c0 -92 4 -97 28 -97c25 0 30 5 30 97c0 93 -5 97 -30 97zM1119 289c-24 0 -28 -4 -28 -97
c0 -92 4 -97 28 -97c25 0 30 5 30 97c0 93 -5 97 -30 97z" />
    <glyph glyph-name="plus" unicode="+" horiz-adv-x="523" 
d="M497 226h-159v-158h-153v158h-159v155h159v158h153v-158h159v-155z" />
    <glyph glyph-name="plusminus" unicode="&#xb1;" horiz-adv-x="558" 
d="M514 465v-154h-158v-107h-153v107h-159v154h159v108h152v-108h159zM44 174h470v-155h-470v155z" />
    <glyph glyph-name="product" unicode="&#x220f;" horiz-adv-x="709" 
d="M684 544h-70v-634h-210v634h-99v-634h-210v634h-70v146h659v-146z" />
    <glyph glyph-name="radical" unicode="&#x221a;" 
d="M593 876l-191 -868c-1 -5 -7 -8 -13 -8h-249c-6 0 -12 3 -13 8l-124 492h166l89 -368h13l154 744h168z" />
    <glyph glyph-name="summation" unicode="&#x2211;" horiz-adv-x="598" 
d="M562 548h-283l119 -227l-133 -342h307v-142h-540v142l132 342l-120 227v142h518v-142z" />
    <glyph glyph-name="lozenge" unicode="&#x25ca;" horiz-adv-x="571" 
d="M297 688l252 -331c5 -8 5 -14 0 -22l-252 -333c-7 -9 -15 -9 -22 0l-253 333c-5 8 -5 14 0 22l253 331c7 9 15 9 22 0zM184 346l102 -142l101 142l-101 140z" />
    <glyph glyph-name="ampersand" unicode="&#x26;" horiz-adv-x="761" 
d="M719 146l23 -134c-38 -18 -112 -26 -150 -26c-63 0 -109 22 -133 62c-50 -43 -104 -62 -208 -62c-153 0 -216 51 -216 190c0 105 36 170 137 179v6c-83 8 -115 57 -115 159c0 162 75 184 278 184c42 0 106 -1 166 -14l-25 -140c-41 1 -81 3 -147 3c-44 0 -54 -11 -54 -67
c0 -53 10 -67 54 -67h118l11 89h178v-89h87v-131h-87v-106c0 -26 9 -36 33 -36h50zM439 288h-122c-46 0 -53 -12 -53 -67c0 -59 6 -72 53 -71c35 1 86 7 122 15v123z" />
    <glyph glyph-name="asciicircum" unicode="^" horiz-adv-x="497" 
d="M467 414l-81 -42l-132 157h-8l-136 -157l-80 42l144 239h152z" />
    <glyph glyph-name="at" unicode="@" horiz-adv-x="801" 
d="M399 617h162c128 0 198 -47 198 -189v-290h-153l-16 63c-30 -38 -80 -76 -156 -76c-83 0 -155 44 -155 128v45c0 73 56 118 147 118h141v13c0 32 -12 45 -50 45h-118c-151 -1 -169 -1 -169 -204c0 -214 23 -204 221 -204h309v-128c-102 -9 -206 -17 -309 -17
c-371 0 -412 45 -412 349c0 302 36 347 360 347zM567 329l-69 -5c-22 -2 -34 -12 -34 -28v-14c0 -16 13 -28 37 -28c20 0 45 8 66 21v54z" />
    <glyph glyph-name="bar" unicode="|" horiz-adv-x="276" 
d="M211 -169h-146v950h146v-950z" />
    <glyph glyph-name="brokenbar" unicode="&#xa6;" horiz-adv-x="278" 
d="M212 381h-146v400h146v-400zM212 -169h-146v400h146v-400z" />
    <glyph glyph-name="copyright" unicode="&#xa9;" horiz-adv-x="782" 
d="M391 704c205 0 364 -150 364 -359s-159 -359 -364 -359c-204 0 -364 150 -364 359s160 359 364 359zM391 607c-143 0 -262 -110 -262 -262s119 -262 262 -262c145 0 262 110 262 262s-117 262 -262 262zM532 279l11 -108c-44 -15 -82 -21 -148 -21
c-142 0 -194 51 -194 196c0 144 52 195 194 195c66 0 96 -5 139 -16l-11 -109c-43 -1 -71 0 -128 0c-33 0 -35 -10 -35 -70c0 -61 2 -70 35 -70c60 0 95 0 137 3z" />
    <glyph glyph-name="dagger" unicode="&#x2020;" horiz-adv-x="486" 
d="M325 -110h-164l11 503v91l-11 207h164l-10 -207v-91zM22 357v143h129v-121zM464 500v-143l-129 22v121h129z" />
    <glyph glyph-name="daggerdbl" unicode="&#x2021;" horiz-adv-x="522" 
d="M333 97l10 -207h-164l10 207v403l-10 191h164l-10 -191v-403zM40 357v143h129v-121zM482 500v-143l-129 22v121h129zM169 81h-129v143l129 -22v-121zM353 202l129 22v-143h-129v121z" />
    <glyph glyph-name="degree" unicode="&#xb0;" horiz-adv-x="325" 
d="M163 704c77 0 142 -61 142 -139c0 -79 -65 -140 -142 -140c-78 0 -143 61 -143 140c0 78 65 139 143 139zM163 614c-26 0 -47 -21 -47 -49s21 -50 47 -50c25 0 46 22 46 50s-21 49 -46 49z" />
    <glyph glyph-name="paragraph" unicode="&#xb6;" horiz-adv-x="621" 
d="M256 -210v411c-169 15 -236 86 -236 249c0 185 95 252 337 252c53 0 133 -4 192 -17v-685h-127v578l-39 1v-789h-127z" />
    <glyph glyph-name="registered" unicode="&#xae;" horiz-adv-x="493" 
d="M247 704c123 0 222 -99 222 -222c0 -124 -99 -223 -222 -223c-124 0 -223 99 -223 223c0 123 99 222 223 222zM247 316c89 0 164 74 164 166c0 91 -75 165 -164 165c-90 0 -165 -74 -165 -165c0 -92 75 -166 165 -166zM364 383h-90l-11 60c-4 10 -7 11 -18 11h-12v-71
h-85v208c32 3 53 3 103 3c72 0 104 -15 104 -64c0 -21 -10 -44 -49 -48v-2c15 -1 34 -4 41 -34zM233 505h15c18 0 21 4 21 16s-3 14 -21 14h-15v-30z" />
    <glyph glyph-name="section" unicode="&#xa7;" horiz-adv-x="565" 
d="M281 295l-145 76c-36 19 -103 48 -103 166c0 132 84 167 250 167c43 0 162 -4 236 -12l-14 -142c-49 3 -80 1 -157 1c-63 0 -86 -2 -90 -21c-5 -21 18 -33 43 -44l115 -54c125 -59 138 -134 92 -255h-144c0 72 -13 80 -83 118zM57 330h144c0 -72 14 -81 83 -118l145 -76
c37 -19 103 -48 103 -167c0 -131 -84 -166 -250 -166c-44 0 -164 3 -236 12l14 142c48 -3 74 -2 157 -2c64 0 86 4 90 22c5 21 -18 32 -43 43l-115 55c-125 59 -138 134 -92 255z" />
    <glyph glyph-name="trademark" unicode="&#x2122;" horiz-adv-x="996" 
d="M400 696v-107h-106v-273h-143v273h-107v107h356zM951 316h-129l-12 273h-8l-22 -163c-4 -29 -24 -43 -54 -43h-76c-30 0 -50 14 -54 43l-23 163h-8l-9 -273h-130l12 331c1 32 16 49 48 49h127c29 0 49 -15 53 -44l15 -123c3 -19 3 -39 5 -58h4c2 19 3 39 5 58l13 123
c4 29 24 44 54 44h129c32 0 47 -17 49 -49z" />
    <glyph glyph-name="acute" unicode="&#xb4;" horiz-adv-x="392" 
d="M352 614l-255 -103l-57 86l233 150z" />
    <glyph glyph-name="breve" unicode="&#x2d8;" horiz-adv-x="411" 
d="M287 719l97 -13c16 -89 -55 -172 -178 -172s-195 83 -179 172l97 13c0 -42 22 -59 82 -59c59 0 81 17 81 59z" />
    <glyph glyph-name="brevecy" horiz-adv-x="411" 
d="M257 707h127c16 -86 -55 -173 -178 -173s-195 87 -179 173h127c-8 -62 13 -77 52 -77c38 0 59 15 51 77z" />
    <glyph glyph-name="caron" unicode="&#x2c7;" horiz-adv-x="477" 
d="M444 677l-163 -131h-82l-164 131l50 77l151 -76h8l152 76z" />
    <glyph glyph-name="cedilla" unicode="&#xb8;" horiz-adv-x="263" 
d="M53 -105l19 72c125 14 180 15 176 -65c-5 -115 -109 -164 -234 -147l22 78c44 0 83 4 87 51c2 14 -7 11 -70 11z" />
    <glyph glyph-name="circumflex" unicode="&#x2c6;" horiz-adv-x="477" 
d="M451 594l-48 -69l-159 93h-8l-162 -93l-50 77l140 133h152z" />
    <glyph glyph-name="dieresis" unicode="&#xa8;" horiz-adv-x="436" 
d="M89 720h69c26 0 39 -13 39 -39v-63c0 -26 -13 -39 -39 -39h-69c-26 0 -39 13 -39 39v63c0 26 13 39 39 39zM278 720h69c26 0 39 -13 39 -39v-63c0 -26 -13 -39 -39 -39h-69c-26 0 -39 13 -39 39v63c0 26 13 39 39 39z" />
    <glyph glyph-name="dotaccent" unicode="&#x2d9;" horiz-adv-x="251" 
d="M94 724h63c40 0 59 -18 59 -57v-47c0 -38 -19 -57 -59 -57h-63c-40 0 -59 19 -59 57v47c0 39 19 57 59 57z" />
    <glyph glyph-name="grave" unicode="`" horiz-adv-x="392" 
d="M352 597l-57 -86l-255 103l79 133z" />
    <glyph glyph-name="hungarumlaut" unicode="&#x2dd;" horiz-adv-x="547" 
d="M292 672l-169 -176l-83 67l123 193zM507 672l-170 -176l-82 66l123 194z" />
    <glyph glyph-name="macron" unicode="&#xaf;" horiz-adv-x="400" 
d="M360 590h-320v123h320v-123z" />
    <glyph glyph-name="ogonek" unicode="&#x2db;" horiz-adv-x="250" 
d="M139 2l80 -2c-16 -29 -31 -54 -47 -87c-17 -36 11 -39 48 -33l12 -72c-162 -61 -222 14 -198 87c10 32 43 71 105 107z" />
    <glyph glyph-name="ring" unicode="&#x2da;" horiz-adv-x="318" 
d="M159 780c70 0 129 -56 129 -125c0 -70 -59 -125 -129 -125s-129 55 -129 125c0 69 59 125 129 125zM159 700c-24 0 -44 -21 -44 -45c0 -25 20 -45 44 -45s44 20 44 45c0 24 -20 45 -44 45z" />
    <glyph glyph-name="tilde" unicode="&#x2dc;" horiz-adv-x="460" 
d="M132 555h-87c-22 119 32 173 85 169c68 -5 117 -32 169 -43c30 -6 29 6 29 38h87c21 -112 -23 -173 -85 -169c-68 5 -125 35 -170 43c-30 5 -28 -6 -28 -38z" />
    </font>
</defs>
</svg>
